<?xml version="1.0" encoding="UTF-8"?>
<svg version="1.1" xmlns="http://www.w3.org/2000/svg" width="360" height="99">
<path d="M0 0 C118.8 0 237.6 0 360 0 C360 32.67 360 65.34 360 99 C241.2 99 122.4 99 0 99 C0 66.33 0 33.66 0 0 Z " fill="#FDFDFD" transform="translate(0,0)"/>
<path d="M0 0 C0.125 5.75 0.125 5.75 -1 8 C-1.66 8 -2.32 8 -3 8 C-2.67 9.65 -2.34 11.3 -2 13 C-1.4225 13.0825 -0.845 13.165 -0.25 13.25 C2 14 2 14 3.875 16.0625 C5.92358207 18.32926906 5.92358207 18.32926906 9.25 18.25 C10.1575 18.1675 11.065 18.085 12 18 C12.66 16.68 13.32 15.36 14 14 C14.66 14 15.32 14 16 14 C16 15.32 16 16.64 16 18 C16.45375 17.34 16.9075 16.68 17.375 16 C17.91125 15.34 18.4475 14.68 19 14 C19.66 14 20.32 14 21 14 C20.4740625 15.423125 20.4740625 15.423125 19.9375 16.875 C18.53641576 21.64652464 19.27854203 26.1545323 20 31 C19.01 31.33 18.02 31.66 17 32 C16.0439625 33.8931393 16.0439625 33.8931393 15.4375 36.1875 C15.19257812 36.99445312 14.94765625 37.80140625 14.6953125 38.6328125 C14.46585938 39.41398437 14.23640625 40.19515625 14 41 C13.33333333 43 12.66666667 45 12 47 C12.66 47 13.32 47 14 47 C14 47.66 14 48.32 14 49 C13.01 49 12.02 49 11 49 C10.67 49.99 10.34 50.98 10 52 C11.32 52.66 12.64 53.32 14 54 C14.125 60.625 14.125 60.625 13 64 C14.485 64.495 14.485 64.495 16 65 C7.42 65 -1.16 65 -10 65 C-8.515 64.505 -8.515 64.505 -7 64 C-7.33 63.278125 -7.66 62.55625 -8 61.8125 C-9.02083172 58.94141078 -9.32596895 57.01521279 -9 54 C-8.34 53.34 -7.68 52.68 -7 52 C-7.12828437 50.03799289 -7.12828437 50.03799289 -7.75 47.875 C-7.94851562 47.07964844 -8.14703125 46.28429688 -8.3515625 45.46484375 C-8.56554687 44.65144531 -8.77953125 43.83804688 -9 43 C-9.37577637 41.47935831 -9.75084035 39.9585403 -10.125 38.4375 C-10.41375 37.303125 -10.7025 36.16875 -11 35 C-12.32 34.67 -13.64 34.34 -15 34 C-15 33.34 -15 32.68 -15 32 C-14.01 31.505 -14.01 31.505 -13 31 C-12.63678515 29.33958925 -12.31323028 27.67056149 -12 26 C-11.05897616 22.97961703 -10.0354679 19.98918093 -9 17 C-9.66 17 -10.32 17 -11 17 C-12.13253652 10.77104914 -11.70366626 6.08251096 -10 0 C-6.30458414 -0.95024979 -3.69541586 -0.95024979 0 0 Z " fill="#AB92BD" transform="translate(32,17)"/>
<path d="M0 0 C1.2065625 0.0309375 1.2065625 0.0309375 2.4375 0.0625 C4.03830151 4.06450378 2.73029692 7.10806236 1.4375 11.0625 C2.22125 11.165625 3.005 11.26875 3.8125 11.375 C6.4375 12.0625 6.4375 12.0625 8.4375 15.0625 C8.78125 17.078125 8.78125 17.078125 8.9375 19.3125 C9.30478673 23.41943348 10.27266197 27.10205071 11.4375 31.0625 C11.4375 32.3825 11.4375 33.7025 11.4375 35.0625 C10.4475 35.0625 9.4575 35.0625 8.4375 35.0625 C7.4475 31.4325 6.4575 27.8025 5.4375 24.0625 C5.31842765 28.75109956 5.31842765 28.75109956 5.94189453 33.37817383 C6.53459351 36.58838333 6.49720897 39.56060629 6.4296875 42.82421875 C6.41292969 44.10748047 6.39617187 45.39074219 6.37890625 46.71289062 C6.34782422 48.74086956 6.31208189 50.76844326 6.26611328 52.79614258 C6.22391468 54.76359302 6.20149667 56.73143667 6.1796875 58.69921875 C6.1576123 59.87186279 6.13553711 61.04450684 6.11279297 62.25268555 C6.21994629 63.17992432 6.32709961 64.10716309 6.4375 65.0625 C7.9225 66.0525 7.9225 66.0525 9.4375 67.0625 C9.4375 67.7225 9.4375 68.3825 9.4375 69.0625 C7.1275 69.0625 4.8175 69.0625 2.4375 69.0625 C2.38215088 68.29059326 2.32680176 67.51868652 2.26977539 66.72338867 C2.01717688 63.2319568 1.75865964 59.74098785 1.5 56.25 C1.41298828 55.03505859 1.32597656 53.82011719 1.23632812 52.56835938 C1.14931641 51.40498047 1.06230469 50.24160156 0.97265625 49.04296875 C0.894104 47.96942139 0.81555176 46.89587402 0.73461914 45.78979492 C0.52501138 42.97232842 0.52501138 42.97232842 -0.5625 40.0625 C-2.81628386 43.44317579 -2.92270013 45.05114476 -3.1953125 49.04296875 C-3.27910156 50.20634766 -3.36289063 51.36972656 -3.44921875 52.56835938 C-3.56716797 54.39077148 -3.56716797 54.39077148 -3.6875 56.25 C-3.81705078 58.08981445 -3.81705078 58.08981445 -3.94921875 59.96679688 C-4.16153792 62.99824286 -4.36563079 66.03001785 -4.5625 69.0625 C-6.5425 69.0625 -8.5225 69.0625 -10.5625 69.0625 C-10.2325 68.0725 -9.9025 67.0825 -9.5625 66.0625 C-9.4227478 63.83835096 -9.33705723 61.61064894 -9.28125 59.3828125 C-9.26284058 58.73303436 -9.24443115 58.08325623 -9.22546387 57.41378784 C-9.16682564 55.3384489 -9.11399118 53.2630278 -9.0625 51.1875 C-8.99450668 48.46077711 -8.92076948 45.73429362 -8.84375 43.0078125 C-8.79831055 41.19047607 -8.79831055 41.19047607 -8.75195312 39.33642578 C-8.58571337 36.46364854 -8.17554684 33.86486853 -7.5625 31.0625 C-7.49790958 29.29272239 -7.47638935 27.52079848 -7.5 25.75 C-7.50902344 24.86699219 -7.51804688 23.98398437 -7.52734375 23.07421875 C-7.53894531 22.41035156 -7.55054688 21.74648438 -7.5625 21.0625 C-7.748125 22.856875 -7.748125 22.856875 -7.9375 24.6875 C-8.38575054 28.33846813 -9.26696837 31.60774899 -10.5625 35.0625 C-11.8825 35.0625 -13.2025 35.0625 -14.5625 35.0625 C-14.5625 33.7425 -14.5625 32.4225 -14.5625 31.0625 C-13.9025 31.0625 -13.2425 31.0625 -12.5625 31.0625 C-12.53671875 30.12148438 -12.5109375 29.18046875 -12.484375 28.2109375 C-11.90699272 15.53477191 -11.90699272 15.53477191 -7.5625 11.0625 C-6.5725 10.7325 -5.5825 10.4025 -4.5625 10.0625 C-4.50191406 9.42441406 -4.44132813 8.78632813 -4.37890625 8.12890625 C-4.29511719 7.30261719 -4.21132812 6.47632813 -4.125 5.625 C-4.04378906 4.80128906 -3.96257812 3.97757813 -3.87890625 3.12890625 C-3.4093501 0.06229881 -3.15462671 0.07694211 0 0 Z " fill="#87A664" transform="translate(180.5625,14.9375)"/>
<path d="M0 0 C2.625 0.375 2.625 0.375 5 1 C5.020625 2.093125 5.04125 3.18625 5.0625 4.3125 C5.5265625 6.1378125 5.5265625 6.1378125 6 8 C8.82115334 9.46302661 8.82115334 9.46302661 10.94140625 10.13671875 C14.9780115 11.82948869 18.25623221 14.61529958 21 18 C21.3125 21.1875 21.3125 21.1875 20 24 C17.5625 26.1875 17.5625 26.1875 15 28 C12.54713704 31.67929445 12.76771122 33.47377907 12.8046875 37.85546875 C12.80893234 38.84792351 12.80893234 38.84792351 12.81326294 39.86042786 C12.82444082 41.96963737 12.84954019 44.07841925 12.875 46.1875 C12.88503293 47.61913448 12.89415824 49.05077564 12.90234375 50.48242188 C12.92437205 53.98841977 12.95888515 57.49416813 13 61 C11.68 61 10.36 61 9 61 C8.87882812 59.95199219 8.75765625 58.90398437 8.6328125 57.82421875 C8.46396055 56.44526114 8.29466659 55.06635761 8.125 53.6875 C8.04636719 52.99720703 7.96773437 52.30691406 7.88671875 51.59570312 C7.44056153 48.04360529 7.02019807 46.0302971 5 43 C2.09472388 45.90527612 2.28735681 49.21099025 1.875 53.125 C1.78863281 53.87910156 1.70226562 54.63320312 1.61328125 55.41015625 C1.40110739 57.27257127 1.19954237 59.13618931 1 61 C-0.32 61 -1.64 61 -3 61 C-3.05869332 57.50007197 -3.09382709 54.0002728 -3.125 50.5 C-3.14175781 49.51773438 -3.15851563 48.53546875 -3.17578125 47.5234375 C-3.21499874 41.64081335 -2.70432638 36.63635497 -1 31 C2.3 31 5.6 31 9 31 C9.33 29.68 9.66 28.36 10 27 C10.9590625 26.5359375 10.9590625 26.5359375 11.9375 26.0625 C14.26452391 25.12720697 14.26452391 25.12720697 15.25 22.375 C15.4975 21.59125 15.745 20.8075 16 20 C14.02 19.67 12.04 19.34 10 19 C10 20.32 10 21.64 10 23 C9.34 23 8.68 23 8 23 C8 22.34 8 21.68 8 21 C6.68 21 5.36 21 4 21 C4 22.32 4 23.64 4 25 C2.68 25 1.36 25 0 25 C0 23.68 0 22.36 0 21 C-0.66 21 -1.32 21 -2 21 C-2.2475 21.804375 -2.495 22.60875 -2.75 23.4375 C-4 26 -4 26 -5.75 27 C-8 27 -8 27 -10.8125 25.5625 C-14.47614732 23.76659445 -16.97300851 23.75838051 -21 24 C-21.33 22.35 -21.66 20.7 -22 19 C-18.51943975 17.3564021 -16.65529044 16.70296146 -13 18 C-12.278125 18.12375 -11.55625 18.2475 -10.8125 18.375 C-9.9153125 18.684375 -9.9153125 18.684375 -9 19 C-8.67 19.99 -8.34 20.98 -8 22 C-7.34 22 -6.68 22 -6 22 C-5.80664062 21.37351562 -5.61328125 20.74703125 -5.4140625 20.1015625 C-5.15367188 19.28429687 -4.89328125 18.46703125 -4.625 17.625 C-4.36976562 16.81289063 -4.11453125 16.00078125 -3.8515625 15.1640625 C-3 13 -3 13 -1 11 C-1.05379186 8.84437356 -1.05379186 8.84437356 -1.5 6.5 C-1.90625 4.09375 -1.90625 4.09375 -2 2 C-1.34 1.34 -0.68 0.68 0 0 Z " fill="#798882" transform="translate(124,15)"/>
<path d="M0 0 C1.07765625 0.01804688 2.1553125 0.03609375 3.265625 0.0546875 C4.49539063 0.08949219 4.49539063 0.08949219 5.75 0.125 C4.38698986 3.21622875 3.56409143 4.27530906 0.8125 6.5 C-3.99182712 11.11729735 -4.2330413 17.83214147 -5.25 24.125 C-5.60123737 26.06303317 -5.95512628 28.00058898 -6.3125 29.9375 C-6.54259766 31.24074219 -6.54259766 31.24074219 -6.77734375 32.5703125 C-7.49470166 36.44760236 -8.36802496 40.28210876 -9.25 44.125 C-7.27 44.125 -5.29 44.125 -3.25 44.125 C-3.58 45.445 -3.91 46.765 -4.25 48.125 C-15.67379278 49.36297705 -27.0977598 49.27768119 -38.57373047 49.25537109 C-41.90206336 49.24995597 -45.23026467 49.25537164 -48.55859375 49.26171875 C-50.67708363 49.26105889 -52.79557343 49.25977964 -54.9140625 49.2578125 C-56.40457626 49.26084885 -56.40457626 49.26084885 -57.92520142 49.26394653 C-58.84401093 49.26079437 -59.76282043 49.25764221 -60.70947266 49.25439453 C-61.91973618 49.25320114 -61.91973618 49.25320114 -63.15444946 49.25198364 C-65.25 49.125 -65.25 49.125 -68.25 48.125 C-68.25 47.135 -68.25 46.145 -68.25 45.125 C-57.03 45.125 -45.81 45.125 -34.25 45.125 C-34.25 44.135 -34.25 43.145 -34.25 42.125 C-30.92465243 41.01655081 -28.62817425 41.28045644 -25.25 42.125 C-25.25 42.785 -25.25 43.445 -25.25 44.125 C-22.28 44.62 -22.28 44.62 -19.25 45.125 C-19.27707031 44.24585938 -19.30414063 43.36671875 -19.33203125 42.4609375 C-19.25374747 39.27739723 -18.79017913 36.80215401 -17.9375 33.75 C-15.95912353 26.26985277 -14.6280204 18.73692221 -13.25 11.125 C-19.19 11.125 -25.13 11.125 -31.25 11.125 C-30.92 10.135 -30.59 9.145 -30.25 8.125 C-27.61 8.125 -24.97 8.125 -22.25 8.125 C-22.25 7.135 -22.25 6.145 -22.25 5.125 C-21.59 5.125 -20.93 5.125 -20.25 5.125 C-20.25 6.115 -20.25 7.105 -20.25 8.125 C-15.73981694 6.89495007 -13.42084275 5.50723226 -10.25 2.125 C-6.83080314 -0.0874215 -4.01589497 -0.08730206 0 0 Z " fill="#5D6074" transform="translate(337.25,34.875)"/>
<path d="M0 0 C0.125 5.75 0.125 5.75 -1 8 C1.64 8 4.28 8 7 8 C6.01 8.495 6.01 8.495 5 9 C5.66 10.65 6.32 12.3 7 14 C7.66 14 8.32 14 9 14 C9 11.36 9 8.72 9 6 C11.31 6.33 13.62 6.66 16 7 C16.33 5.68 16.66 4.36 17 3 C18.32 3.33 19.64 3.66 21 4 C21.625 6.375 21.625 6.375 22 9 C21.34 9.66 20.68 10.32 20 11 C19.01 11 18.02 11 17 11 C16.67 10.34 16.34 9.68 16 9 C14.68 8.67 13.36 8.34 12 8 C11.67 11.63 11.34 15.26 11 19 C9.68 19 8.36 19 7 19 C6.34 18.34 5.68 17.68 5 17 C5.4979837 20.73487777 5.87491756 22.81237635 8 26 C8 27.32 8 28.64 8 30 C7.34 30 6.68 30 6 30 C6.33 30.99 6.66 31.98 7 33 C7.07029121 35.57265818 7.09370832 38.11641431 7.0625 40.6875 C7.05798828 41.38939453 7.05347656 42.09128906 7.04882812 42.81445312 C7.03706927 44.54300538 7.01913454 46.27151365 7 48 C6.01 48 5.02 48 4 48 C2.68 42.06 1.36 36.12 0 30 C-2.64 30.66 -5.28 31.32 -8 32 C-7.67 37.28 -7.34 42.56 -7 48 C-9.64 48 -12.28 48 -15 48 C-15 47.34 -15 46.68 -15 46 C-13.515 45.505 -13.515 45.505 -12 45 C-12.70583522 36.46348556 -12.70583522 36.46348556 -14 28 C-10.17679443 26.57741188 -7.08718695 25.75957724 -3 26 C-3.66 24.02 -4.32 22.04 -5 20 C-6.65 20.33 -8.3 20.66 -10 21 C-10.67354499 19.56570999 -11.33859701 18.12742943 -12 16.6875 C-12.37125 15.88699219 -12.7425 15.08648437 -13.125 14.26171875 C-14 12 -14 12 -14 9 C-11.36 8.67 -8.72 8.34 -6 8 C-6.33 5.69 -6.66 3.38 -7 1 C-3.375 -1.125 -3.375 -1.125 0 0 Z " fill="#BAA3C0" transform="translate(242,36)"/>
<path d="M0 0 C1.2065625 0.0309375 1.2065625 0.0309375 2.4375 0.0625 C3 2 3 2 3.4375 4.0625 C3.1075 4.3925 2.7775 4.7225 2.4375 5.0625 C2.20557135 6.57719448 2.02534762 8.10004562 1.875 9.625 C1.79121094 10.45128906 1.70742187 11.27757812 1.62109375 12.12890625 C1.53021484 13.08603516 1.53021484 13.08603516 1.4375 14.0625 C2.7575 14.3925 4.0775 14.7225 5.4375 15.0625 C5.7675 17.3725 6.0975 19.6825 6.4375 22.0625 C5.1175 22.0625 3.7975 22.0625 2.4375 22.0625 C2.9015625 23.42375 2.9015625 23.42375 3.375 24.8125 C5.03548995 29.89164573 5.03548995 29.89164573 5.4375 32.0625 C5.1075 32.3925 4.7775 32.7225 4.4375 33.0625 C4.36601801 34.41493917 4.35350546 35.77084367 4.375 37.125 C4.395625 38.424375 4.41625 39.72375 4.4375 41.0625 C5.71625 41.371875 6.995 41.68125 8.3125 42 C10.53851675 42.53855244 12.38489999 43.0362 14.4375 44.0625 C14.70228098 47.41008816 14.80425906 50.71611744 14.828125 54.07226562 C14.94881475 57.73654047 15.13001148 59.68373541 17.4765625 62.57421875 C18.12367187 63.06535156 18.77078125 63.55648437 19.4375 64.0625 C16.7975 64.0625 14.1575 64.0625 11.4375 64.0625 C11.1075 58.7825 10.7775 53.5025 10.4375 48.0625 C7.1375 48.0625 3.8375 48.0625 0.4375 48.0625 C0.499375 48.92875 0.56125 49.795 0.625 50.6875 C0.41294498 54.50449033 -0.68294307 56.77327536 -2.5625 60.0625 C-6.8525 60.0625 -11.1425 60.0625 -15.5625 60.0625 C-15.8925 61.3825 -16.2225 62.7025 -16.5625 64.0625 C-17.8825 63.4025 -19.2025 62.7425 -20.5625 62.0625 C-20.2325 59.7525 -19.9025 57.4425 -19.5625 55.0625 C-13.1275 54.5675 -13.1275 54.5675 -6.5625 54.0625 C-6.50191406 53.07507813 -6.44132812 52.08765625 -6.37890625 51.0703125 C-6.29511719 49.78898437 -6.21132812 48.50765625 -6.125 47.1875 C-6.04378906 45.91132812 -5.96257812 44.63515625 -5.87890625 43.3203125 C-5.5625 40.0625 -5.5625 40.0625 -4.5625 38.0625 C-4.42407341 36.73567399 -4.3374704 35.40315474 -4.28125 34.0703125 C-4.24386719 33.28269531 -4.20648438 32.49507812 -4.16796875 31.68359375 C-4.13316406 30.85988281 -4.09835938 30.03617188 -4.0625 29.1875 C-3.99329135 27.56494176 -3.92049447 25.94253177 -3.84375 24.3203125 C-3.79831055 23.23967529 -3.79831055 23.23967529 -3.75195312 22.13720703 C-3.5589895 20.02405638 -3.09641951 18.11237903 -2.5625 16.0625 C-2.27900158 10.93451384 -2.42911905 6.08175849 -3.5625 1.0625 C-2.5625 0.0625 -2.5625 0.0625 0 0 Z " fill="#FBB752" transform="translate(81.5625,19.9375)"/>
<path d="M0 0 C1.66611905 -0.042721 3.33382885 -0.04063832 5 0 C6 1 6 1 6.09765625 2.84765625 C6.06510417 4.8984375 6.03255208 6.94921875 6 9 C5.34 9 4.68 9 4 9 C4.32814697 9.56533447 4.65629395 10.13066895 4.99438477 10.71313477 C6.11375535 13.25869054 6.19378629 14.82984356 6.08984375 17.58984375 C6.06986328 18.45673828 6.04988281 19.32363281 6.02929688 20.21679688 C5.96822601 22.02683329 5.90313832 23.83673875 5.83398438 25.64648438 C5.72392062 30.75875623 5.91303549 33.71486059 9 38 C8.28541109 40.14376674 7.58775583 41.41224417 6 43 C-1.36633663 43.47524752 -1.36633663 43.47524752 -4 41.5 C-4.33 41.005 -4.66 40.51 -5 40 C-4.67 39.34 -4.34 38.68 -4 38 C-3.28106284 32.72610553 -3.28106284 32.72610553 -5.33984375 28.05859375 C-6.41826591 26.88374796 -7.533437 25.74125916 -8.6875 24.640625 C-10 23 -10 23 -10 19 C-9.34 19 -8.68 19 -8 19 C-7.79375 18.278125 -7.5875 17.55625 -7.375 16.8125 C-6 14 -6 14 -2.8125 11.625 C-1.884375 10.75875 -0.95625 9.8925 0 9 C-0.06977074 5.34244606 -0.06977074 5.34244606 -1 2 C-0.67 1.34 -0.34 0.68 0 0 Z " fill="#457CB1" transform="translate(294,15)"/>
<path d="M0 0 C1.14798238 3.92742604 1.07631055 7.69567866 0.9921875 11.76171875 C0.97542969 13.04498047 0.95867187 14.32824219 0.94140625 15.65039062 C0.91032422 17.67836956 0.87458189 19.70594326 0.82861328 21.73364258 C0.78641468 23.70109302 0.76399667 25.66893667 0.7421875 27.63671875 C0.7201123 28.80936279 0.69803711 29.98200684 0.67529297 31.19018555 C0.78244629 32.11742432 0.88959961 33.04466309 1 34 C1.99 34.66 2.98 35.32 4 36 C4 36.66 4 37.32 4 38 C1.69 38 -0.62 38 -3 38 C-3.05534912 37.22809326 -3.11069824 36.45618652 -3.16772461 35.66088867 C-3.42032312 32.1694568 -3.67884036 28.67848785 -3.9375 25.1875 C-4.02451172 23.97255859 -4.11152344 22.75761719 -4.20117188 21.50585938 C-4.28818359 20.34248047 -4.37519531 19.17910156 -4.46484375 17.98046875 C-4.543396 16.90692139 -4.62194824 15.83337402 -4.70288086 14.72729492 C-4.91248862 11.90982842 -4.91248862 11.90982842 -6 9 C-8.25378386 12.38067579 -8.36020013 13.98864476 -8.6328125 17.98046875 C-8.71660156 19.14384766 -8.80039063 20.30722656 -8.88671875 21.50585938 C-8.96535156 22.72080078 -9.04398438 23.93574219 -9.125 25.1875 C-9.21136719 26.41404297 -9.29773438 27.64058594 -9.38671875 28.90429688 C-9.59903792 31.93574286 -9.80313079 34.96751785 -10 38 C-11.98 38 -13.96 38 -16 38 C-15.67 37.01 -15.34 36.02 -15 35 C-14.8602478 32.77585096 -14.77455723 30.54814894 -14.71875 28.3203125 C-14.70034058 27.67053436 -14.68193115 27.02075623 -14.66296387 26.35128784 C-14.60432564 24.2759489 -14.55149118 22.2005278 -14.5 20.125 C-14.43200668 17.39827711 -14.35826948 14.67179362 -14.28125 11.9453125 C-14.25095703 10.73375488 -14.22066406 9.52219727 -14.18945312 8.27392578 C-14.02356793 5.40727575 -13.65161052 2.79044949 -13 0 C-11.20909747 -0.19466332 -9.41723495 -0.38051213 -7.625 -0.5625 C-6.12839844 -0.71912109 -6.12839844 -0.71912109 -4.6015625 -0.87890625 C-2 -1 -2 -1 0 0 Z " fill="#5177A5" transform="translate(186,46)"/>
<path d="M0 0 C0.125 5.75 0.125 5.75 -1 8 C-1.66 8 -2.32 8 -3 8 C-2.67 9.65 -2.34 11.3 -2 13 C-1.4225 13.0825 -0.845 13.165 -0.25 13.25 C2 14 2 14 3.875 16.0625 C5.92358207 18.32926906 5.92358207 18.32926906 9.25 18.25 C10.1575 18.1675 11.065 18.085 12 18 C12.66 16.68 13.32 15.36 14 14 C14.66 14 15.32 14 16 14 C16 15.32 16 16.64 16 18 C16.45375 17.34 16.9075 16.68 17.375 16 C17.91125 15.34 18.4475 14.68 19 14 C19.66 14 20.32 14 21 14 C20.4740625 15.423125 20.4740625 15.423125 19.9375 16.875 C18.53641576 21.64652464 19.27854203 26.1545323 20 31 C18.515 31.495 18.515 31.495 17 32 C15.97718482 34.09719872 15.97718482 34.09719872 15.3125 36.5625 C15.06113281 37.38878906 14.80976562 38.21507812 14.55078125 39.06640625 C14.36902344 39.70449219 14.18726562 40.34257813 14 41 C13 38 13 38 14.1875 35.3125 C15.19334728 31.211738 14.68533085 29.27364434 12.6796875 25.62890625 C9.77859569 22.81552187 6.43534699 23.12229214 2.55859375 23.1328125 C0 23 0 23 -3 21 C-3 22.32 -3 23.64 -3 25 C-4.65 25 -6.3 25 -8 25 C-8.95024979 21.30458414 -8.95024979 18.69541586 -8 15 C-7.34 15 -6.68 15 -6 15 C-6.33 12.03 -6.66 9.06 -7 6 C-7.66 9.3 -8.32 12.6 -9 16 C-9.99 15.01 -10.98 14.02 -12 13 C-11.75 9.6875 -11.75 9.6875 -11 6 C-10.814375 4.865625 -10.62875 3.73125 -10.4375 2.5625 C-10.293125 1.716875 -10.14875 0.87125 -10 0 C-6.30458414 -0.95024979 -3.69541586 -0.95024979 0 0 Z " fill="#D89165" transform="translate(32,17)"/>
<path d="M0 0 C2.625 0.375 2.625 0.375 5 1 C5.020625 2.093125 5.04125 3.18625 5.0625 4.3125 C5.5265625 6.1378125 5.5265625 6.1378125 6 8 C9.32834315 9.91452913 9.32834315 9.91452913 13 11 C13.99 11.66 14.98 12.32 16 13 C16.1875 15.625 16.1875 15.625 16 18 C13.92446352 18.5534764 12.15634036 19 10 19 C10 20.32 10 21.64 10 23 C9.34 23 8.68 23 8 23 C8 22.34 8 21.68 8 21 C6.68 21 5.36 21 4 21 C4 22.32 4 23.64 4 25 C2.68 25 1.36 25 0 25 C0 23.68 0 22.36 0 21 C-0.66 21 -1.32 21 -2 21 C-2.2475 21.804375 -2.495 22.60875 -2.75 23.4375 C-4 26 -4 26 -5.75 27 C-8 27 -8 27 -10.8125 25.5625 C-14.47614732 23.76659445 -16.97300851 23.75838051 -21 24 C-21.33 22.35 -21.66 20.7 -22 19 C-18.51943975 17.3564021 -16.65529044 16.70296146 -13 18 C-12.278125 18.12375 -11.55625 18.2475 -10.8125 18.375 C-9.9153125 18.684375 -9.9153125 18.684375 -9 19 C-8.67 19.99 -8.34 20.98 -8 22 C-7.34 22 -6.68 22 -6 22 C-5.80664062 21.37351562 -5.61328125 20.74703125 -5.4140625 20.1015625 C-5.15367188 19.28429687 -4.89328125 18.46703125 -4.625 17.625 C-4.36976562 16.81289063 -4.11453125 16.00078125 -3.8515625 15.1640625 C-3 13 -3 13 -1 11 C-1.05379186 8.84437356 -1.05379186 8.84437356 -1.5 6.5 C-1.90625 4.09375 -1.90625 4.09375 -2 2 C-1.34 1.34 -0.68 0.68 0 0 Z " fill="#E58548" transform="translate(124,15)"/>
<path d="M0 0 C5.21276596 -0.5212766 5.21276596 -0.5212766 8 0 C11.23004091 3.553045 12 5.16593515 12 10 C11.34 10 10.68 10 10 10 C10.33 10.99 10.66 11.98 11 13 C11.07029121 15.57265818 11.09370832 18.11641431 11.0625 20.6875 C11.05798828 21.38939453 11.05347656 22.09128906 11.04882812 22.81445312 C11.03706927 24.54300538 11.01913454 26.27151365 11 28 C10.01 28 9.02 28 8 28 C6.68 22.06 5.36 16.12 4 10 C1.36 10.66 -1.28 11.32 -4 12 C-3.67 17.28 -3.34 22.56 -3 28 C-5.64 28 -8.28 28 -11 28 C-11 27.34 -11 26.68 -11 26 C-10.01 25.67 -9.02 25.34 -8 25 C-8.70583522 16.46348556 -8.70583522 16.46348556 -10 8 C-6.17679443 6.57741188 -3.08718695 5.75957724 1 6 C0.67 4.02 0.34 2.04 0 0 Z " fill="#EDB367" transform="translate(238,56)"/>
<path d="M0 0 C1.65 0 3.3 0 5 0 C5.81627446 2.39460588 6.62811645 4.79056526 7.4375 7.1875 C7.66759766 7.86103516 7.89769531 8.53457031 8.13476562 9.22851562 C9.33524085 12.79514491 10.37277495 16.2871161 11 20 C10.34 20 9.68 20 9 20 C9 21.32 9 22.64 9 24 C9.66 24 10.32 24 11 24 C11 24.66 11 25.32 11 26 C12.32 25.67 13.64 25.34 15 25 C14.67 23.35 14.34 21.7 14 20 C16.31243792 19.97314588 18.6249627 19.95367159 20.9375 19.9375 C22.22527344 19.92589844 23.51304688 19.91429688 24.83984375 19.90234375 C28 20 28 20 29 21 C29.13568319 24.66344611 29.16461426 27.50615721 28 31 C28.99 31.33 29.98 31.66 31 32 C22.42 32 13.84 32 5 32 C5.99 31.67 6.98 31.34 8 31 C7.67 30.278125 7.34 29.55625 7 28.8125 C5.97916828 25.94141078 5.67403105 24.01521279 6 21 C6.66 20.34 7.32 19.68 8 19 C7.87171563 17.03799289 7.87171563 17.03799289 7.25 14.875 C6.95222656 13.68197266 6.95222656 13.68197266 6.6484375 12.46484375 C6.43445313 11.65144531 6.22046875 10.83804688 6 10 C5.62422363 8.47935831 5.24915965 6.9585403 4.875 5.4375 C4.58625 4.303125 4.2975 3.16875 4 2 C2.68 1.67 1.36 1.34 0 1 C0 0.67 0 0.34 0 0 Z " fill="#506076" transform="translate(17,50)"/>
<path d="M0 0 C2.64 0 5.28 0 8 0 C7.96519531 0.80824219 7.93039062 1.61648437 7.89453125 2.44921875 C7.86746094 3.51785156 7.84039062 4.58648437 7.8125 5.6875 C7.77769531 6.74324219 7.74289062 7.79898438 7.70703125 8.88671875 C8.03466971 12.36842345 9.13865602 14.09953174 11 17 C10.28541109 19.14376674 9.58775583 20.41224417 8 22 C0.96453901 22.45390071 0.96453901 22.45390071 -2.125 21 C-3.64190898 17.53277947 -2.09477097 14.514791 -1 11 C-0.01 11 0.98 11 2 11 C2 10.01 2 9.02 2 8 C1.34 7.67 0.68 7.34 0 7 C0 4.69 0 2.38 0 0 Z " fill="#5A5783" transform="translate(292,36)"/>
<path d="M0 0 C0.125 5.75 0.125 5.75 -1 8 C-1.66 8 -2.32 8 -3 8 C-2.67 9.65 -2.34 11.3 -2 13 C-1.34 13 -0.68 13 0 13 C0 13.66 0 14.32 0 15 C-0.66 15 -1.32 15 -2 15 C-2 15.66 -2 16.32 -2 17 C-2.66 17 -3.32 17 -4 17 C-3.649375 17.5775 -3.29875 18.155 -2.9375 18.75 C-1.85082593 21.35801776 -2.06934867 22.39417629 -3 25 C-4.65 25 -6.3 25 -8 25 C-8.95024979 21.30458414 -8.95024979 18.69541586 -8 15 C-7.34 15 -6.68 15 -6 15 C-6.33 12.03 -6.66 9.06 -7 6 C-7.66 9.3 -8.32 12.6 -9 16 C-9.99 15.01 -10.98 14.02 -12 13 C-11.75 9.6875 -11.75 9.6875 -11 6 C-10.814375 4.865625 -10.62875 3.73125 -10.4375 2.5625 C-10.293125 1.716875 -10.14875 0.87125 -10 0 C-6.30458414 -0.95024979 -3.69541586 -0.95024979 0 0 Z " fill="#F8B440" transform="translate(32,17)"/>
<path d="M0 0 C0.99 0.33 1.98 0.66 3 1 C3.83273438 0.98839844 4.66546875 0.97679687 5.5234375 0.96484375 C9.66046912 0.92517358 12.76696991 1.01728429 16.078125 3.65625 C18.08941456 6.6223942 18.72134998 8.39418561 19 12 C17.59142367 18.3172096 14.76889783 24.18341371 12 30 C10 28 10 28 9.953125 26.1875 C10.05109375 25.465625 10.1490625 24.74375 10.25 24 C10.35699219 23.20722656 10.46398438 22.41445313 10.57421875 21.59765625 C11.26655666 17.37375985 12.10026226 13.18421727 13 9 C12.39671875 8.87882812 11.7934375 8.75765625 11.171875 8.6328125 C9.97304688 8.38144531 9.97304688 8.38144531 8.75 8.125 C7.96109375 7.96257813 7.1721875 7.80015625 6.359375 7.6328125 C4.03168856 7.00849925 2.10968048 6.15161458 0 5 C0 3.35 0 1.7 0 0 Z " fill="#F2F0F2" transform="translate(29,38)"/>
<path d="M0 0 C0 0.99 0 1.98 0 3 C0.66 3 1.32 3 2 3 C2 1.35 2 -0.3 2 -2 C2.66 -2 3.32 -2 4 -2 C4.02690844 0.62506802 4.04679404 3.24986173 4.0625 5.875 C4.07087891 6.62136719 4.07925781 7.36773437 4.08789062 8.13671875 C4.11328125 13.7734375 4.11328125 13.7734375 3 16 C1.35 16 -0.3 16 -2 16 C-2 15.01 -2 14.02 -2 13 C-2.62390625 12.92394531 -3.2478125 12.84789063 -3.890625 12.76953125 C-6 12 -6 12 -7.046875 10.07421875 C-7.27890625 9.28660156 -7.5109375 8.49898437 -7.75 7.6875 C-7.99234375 6.90761719 -8.2346875 6.12773438 -8.484375 5.32421875 C-9 3 -9 3 -9 -1 C-5.22102349 -2.0497157 -3.35080929 -2.10976881 0 0 Z " fill="#C5B0CB" transform="translate(32,53)"/>
<path d="M0 0 C1.2065625 0.0309375 1.2065625 0.0309375 2.4375 0.0625 C3 2 3 2 3.4375 4.0625 C3.1075 4.3925 2.7775 4.7225 2.4375 5.0625 C2.20557135 6.57719448 2.02534762 8.10004562 1.875 9.625 C1.79121094 10.45128906 1.70742187 11.27757812 1.62109375 12.12890625 C1.56050781 12.76699219 1.49992187 13.40507813 1.4375 14.0625 C2.7575 14.3925 4.0775 14.7225 5.4375 15.0625 C5.7675 17.3725 6.0975 19.6825 6.4375 22.0625 C5.1175 22.0625 3.7975 22.0625 2.4375 22.0625 C2.1075 23.3825 1.7775 24.7025 1.4375 26.0625 C0.7775 25.7325 0.1175 25.4025 -0.5625 25.0625 C-0.5625 26.3825 -0.5625 27.7025 -0.5625 29.0625 C-1.2225 29.0625 -1.8825 29.0625 -2.5625 29.0625 C-2.5625 31.3725 -2.5625 33.6825 -2.5625 36.0625 C-2.8925 36.0625 -3.2225 36.0625 -3.5625 36.0625 C-3.58953562 33.47909616 -3.60935611 30.89597692 -3.625 28.3125 C-3.63337891 27.58289063 -3.64175781 26.85328125 -3.65039062 26.1015625 C-3.66647376 22.5632721 -3.45954051 19.46881184 -2.5625 16.0625 C-2.27900158 10.93451384 -2.42911905 6.08175849 -3.5625 1.0625 C-2.5625 0.0625 -2.5625 0.0625 0 0 Z " fill="#FBA57C" transform="translate(81.5625,19.9375)"/>
<path d="M0 0 C2.13586678 3.20380017 2.23132175 4.01939967 2.125 7.6875 C2.10695313 8.49574219 2.08890625 9.30398437 2.0703125 10.13671875 C2.03550781 11.05904297 2.03550781 11.05904297 2 12 C1.34 12 0.68 12 0 12 C0 15.3 0 18.6 0 22 C1.65 22 3.3 22 5 22 C6 24 6 24 6.3125 26.375 C6.80051694 29.16246767 6.80051694 29.16246767 9.125 31.0625 C9.74375 31.701875 10.3625 32.34125 11 33 C10.75 35.25 10.75 35.25 10 37 C8 36 8 36 7 33 C3.52176885 31.84058962 1.54104422 32.29179116 -2 33 C-2 32.01 -2 31.02 -2 30 C-3.65 30 -5.3 30 -7 30 C-6.34 29.34 -5.68 28.68 -5 28 C-4.64731066 26.3373217 -4.31966139 24.66934283 -4 23 C-3.05754284 19.98008349 -2.03546287 16.98916641 -1 14 C-1.66 14 -2.32 14 -3 14 C-2 11 -2 11 -1 9 C-0.77532169 7.46331135 -0.59203195 5.92031946 -0.4375 4.375 C-0.35371094 3.55773437 -0.26992188 2.74046875 -0.18359375 1.8984375 C-0.12300781 1.27195312 -0.06242187 0.64546875 0 0 Z " fill="#BCA9C8" transform="translate(24,20)"/>
<path d="M0 0 C1.32 0 2.64 0 4 0 C3.54179727 7.03104193 2.62641501 13.97664544 1.5625 20.9375 C1.44028076 21.76612549 1.31806152 22.59475098 1.19213867 23.44848633 C1.06814697 24.23763428 0.94415527 25.02678223 0.81640625 25.83984375 C0.70756104 26.54488037 0.59871582 27.24991699 0.48657227 27.97631836 C-0.04738118 30.19706101 -0.90936122 32.00026174 -2 34 C-3.32 34 -4.64 34 -6 34 C-5.02558249 25.48244456 -3.91031713 17.00972557 -2.4375 8.5625 C-2.31076904 7.82330322 -2.18403809 7.08410645 -2.0534668 6.32250977 C-1.12394681 1.12394681 -1.12394681 1.12394681 0 0 Z " fill="#F1F2F2" transform="translate(327,46)"/>
<path d="M0 0 C-0.7421875 1.921875 -0.7421875 1.921875 -2 4 C-3.9453125 4.828125 -3.9453125 4.828125 -6.125 5.25 C-7.40375 5.4975 -8.6825 5.745 -10 6 C-9.67 11.28 -9.34 16.56 -9 22 C-11.64 22 -14.28 22 -17 22 C-17 21.34 -17 20.68 -17 20 C-16.01 19.67 -15.02 19.34 -14 19 C-14.70583522 10.46348556 -14.70583522 10.46348556 -16 2 C-10.60539047 -0.27141454 -5.73842251 -0.20413361 0 0 Z " fill="#FABC50" transform="translate(244,62)"/>
<path d="M0 0 C1.65 0 3.3 0 5 0 C5.02724423 2.83339965 5.04695589 5.66653117 5.0625 8.5 C5.07087891 9.29148437 5.07925781 10.08296875 5.08789062 10.8984375 C5.10891185 16.02761717 4.73937287 20.92336106 4 26 C2.02 26 0.04 26 -2 26 C-1.505 24.515 -1.505 24.515 -1 23 C-0.85164052 21.22833025 -0.75229982 19.45232388 -0.68359375 17.67578125 C-0.64169922 16.64775391 -0.59980469 15.61972656 -0.55664062 14.56054688 C-0.51732422 13.48869141 -0.47800781 12.41683594 -0.4375 11.3125 C-0.39431641 10.22904297 -0.35113281 9.14558594 -0.30664062 8.02929688 C-0.20053162 5.35299209 -0.09847639 2.67659474 0 0 Z " fill="#E89856" transform="translate(172,58)"/>
<path d="M0 0 C2.625 0.9375 2.625 0.9375 5 2 C3.65406499 6.52723595 2.03032175 7.72648517 -2 10 C-2.33 10.99 -2.66 11.98 -3 13 C-6.3 13 -9.6 13 -13 13 C-12.67 11.02 -12.34 9.04 -12 7 C-10.68 7 -9.36 7 -8 7 C-8 5.68 -8 4.36 -8 3 C-6.68 3 -5.36 3 -4 3 C-4 3.66 -4 4.32 -4 5 C-3.34 5 -2.68 5 -2 5 C-2 3.68 -2 2.36 -2 1 C-1.34 0.67 -0.68 0.34 0 0 Z " fill="#A7BBD2" transform="translate(136,33)"/>
<path d="M0 0 C-0.01571045 0.68626465 -0.0314209 1.3725293 -0.04760742 2.07958984 C-0.10982719 5.17797663 -0.14894898 8.27623224 -0.1875 11.375 C-0.21263672 12.45523438 -0.23777344 13.53546875 -0.26367188 14.6484375 C-0.27333984 15.6796875 -0.28300781 16.7109375 -0.29296875 17.7734375 C-0.3086792 18.72653809 -0.32438965 19.67963867 -0.34057617 20.66162109 C-0.22818604 21.43328613 -0.1157959 22.20495117 0 23 C0.99 23.66 1.98 24.32 3 25 C3 25.66 3 26.32 3 27 C0.69 27 -1.62 27 -4 27 C-5.16711095 18.33003296 -5.09744014 9.72630608 -5 1 C-1.125 0 -1.125 0 0 0 Z " fill="#CD9864" transform="translate(187,57)"/>
<path d="M0 0 C1.24303616 3.59099336 0.68116015 6.31668957 0 10 C-4.54914978 10.02517837 -9.09825688 10.04307982 -13.64746094 10.05493164 C-15.18718169 10.05988508 -16.72689794 10.06664968 -18.26660156 10.07543945 C-28.88821417 10.13444841 -39.40769305 9.80001501 -50 9 C-50 8.67 -50 8.34 -50 8 C-38.78 8 -27.56 8 -16 8 C-16 7.01 -16 6.02 -16 5 C-12.67465243 3.89155081 -10.37817425 4.15545644 -7 5 C-7 5.66 -7 6.32 -7 7 C-5.02 7.33 -3.04 7.66 -1 8 C-1.020625 7.05125 -1.04125 6.1025 -1.0625 5.125 C-1 2 -1 2 0 0 Z " fill="#64788E" transform="translate(319,72)"/>
<path d="M0 0 C0.33 0.66 0.66 1.32 1 2 C1.66 2 2.32 2 3 2 C3 2.66 3 3.32 3 4 C3.66 4 4.32 4 5 4 C5 3.34 5 2.68 5 2 C7.64 2 10.28 2 13 2 C13 3.32 13 4.64 13 6 C10.36 6 7.72 6 5 6 C5 8.31 5 10.62 5 13 C5.99 13.33 6.98 13.66 8 14 C7.67 15.32 7.34 16.64 7 18 C3.44659742 16.81553247 2.58641985 15.60021495 0.3125 12.6875 C-0.31011719 11.90761719 -0.93273437 11.12773438 -1.57421875 10.32421875 C-3 8 -3 8 -3 4 C-2.34 4 -1.68 4 -1 4 C-0.67 2.68 -0.34 1.36 0 0 Z " fill="#EEA589" transform="translate(287,30)"/>
<path d="M0 0 C0.33 0 0.66 0 1 0 C0.67 2.97 0.34 5.94 0 9 C6.435 8.505 6.435 8.505 13 8 C13 8.99 13 9.98 13 11 C1.57620722 12.23797705 -9.8477598 12.15268119 -21.32373047 12.13037109 C-24.65206336 12.12495597 -27.98026467 12.13037164 -31.30859375 12.13671875 C-33.42708363 12.13605889 -35.54557343 12.13477964 -37.6640625 12.1328125 C-39.15457626 12.13584885 -39.15457626 12.13584885 -40.67520142 12.13894653 C-41.59401093 12.13579437 -42.51282043 12.13264221 -43.45947266 12.12939453 C-44.66973618 12.12820114 -44.66973618 12.12820114 -45.90444946 12.12698364 C-48 12 -48 12 -51 11 C-51 10.34 -51 9.68 -51 9 C-39.65567003 8.93045029 -28.33813468 9.13606591 -17 9.5 C-15.43490276 9.54840172 -13.86979859 9.59657974 -12.3046875 9.64453125 C-8.53637387 9.76045742 -4.76816545 9.8793571 -1 10 C-0.67 6.7 -0.34 3.4 0 0 Z " fill="#455466" transform="translate(320,72)"/>
<path d="M0 0 C1.32 0.33 2.64 0.66 4 1 C4.625 3.375 4.625 3.375 5 6 C4.34 6.66 3.68 7.32 3 8 C2.01 8 1.02 8 0 8 C-0.33 7.34 -0.66 6.68 -1 6 C-2.32 5.67 -3.64 5.34 -5 5 C-5.33 8.63 -5.66 12.26 -6 16 C-7.32 16 -8.64 16 -10 16 C-10.66 14.68 -11.32 13.36 -12 12 C-12.99 12 -13.98 12 -15 12 C-15 10.02 -15 8.04 -15 6 C-13.0625 6.8125 -13.0625 6.8125 -11 8 C-10.67 8.99 -10.34 9.98 -10 11 C-9.34 11 -8.68 11 -8 11 C-8 8.36 -8 5.72 -8 3 C-5.69 3.33 -3.38 3.66 -1 4 C-0.67 2.68 -0.34 1.36 0 0 Z " fill="#9B5B53" transform="translate(259,39)"/>
<path d="M0 0 C1.17755859 0.09667969 1.17755859 0.09667969 2.37890625 0.1953125 C4.4375 0.875 4.4375 0.875 5.71484375 2.9296875 C5.95332031 3.57164063 6.19179687 4.21359375 6.4375 4.875 C7.0975 4.875 7.7575 4.875 8.4375 4.875 C8.7675 3.225 9.0975 1.575 9.4375 -0.125 C9.7675 1.195 10.0975 2.515 10.4375 3.875 C11.0975 3.875 11.7575 3.875 12.4375 3.875 C10.9975 8.555 10.9975 8.555 8.6875 9.875 C6.4375 9.875 6.4375 9.875 3.625 8.4375 C-0.03864732 6.64159445 -2.53550851 6.63338051 -6.5625 6.875 C-6.8925 5.225 -7.2225 3.575 -7.5625 1.875 C-4.31530737 -0.28979509 -3.68455971 -0.37634712 0 0 Z " fill="#58627C" transform="translate(109.5625,32.125)"/>
<path d="M0 0 C1.32 0 2.64 0 4 0 C4.03867188 1.66289063 4.03867188 1.66289063 4.078125 3.359375 C4.13441656 4.82295547 4.19176367 6.28649562 4.25 7.75 C4.26417969 8.47960937 4.27835938 9.20921875 4.29296875 9.9609375 C4.45955152 13.62575849 4.69935965 15.63051072 7.046875 18.515625 C7.69140625 19.00546875 8.3359375 19.4953125 9 20 C6.36 20 3.72 20 1 20 C0.67 14.72 0.34 9.44 0 4 C-3.3 4 -6.6 4 -10 4 C-10 3.34 -10 2.68 -10 2 C-6.7 2 -3.4 2 0 2 C0 1.34 0 0.68 0 0 Z " fill="#FDB439" transform="translate(92,64)"/>
<path d="M0 0 C1 3 1 3 0 6 C0.66 6 1.32 6 2 6 C2 6.66 2 7.32 2 8 C1.01 8 0.02 8 -1 8 C-1.33 8.99 -1.66 9.98 -2 11 C-1.34 11.33 -0.68 11.66 0 12 C-4.29 12 -8.58 12 -13 12 C-12.34 13.65 -11.68 15.3 -11 17 C-12.65 17.33 -14.3 17.66 -16 18 C-16 17.34 -16 16.68 -16 16 C-16.66 16 -17.32 16 -18 16 C-18 14.68 -18 13.36 -18 12 C-17.34 12 -16.68 12 -16 12 C-16 10.68 -16 9.36 -16 8 C-15.34 8 -14.68 8 -14 8 C-14 8.99 -14 9.98 -14 11 C-12.35 11 -10.7 11 -9 11 C-8.67 8.69 -8.34 6.38 -8 4 C-7.01 4 -6.02 4 -5 4 C-4.67 5.32 -4.34 6.64 -4 8 C-2.68 5.36 -1.36 2.72 0 0 Z " fill="#B28F70" transform="translate(44,58)"/>
<path d="M0 0 C1.65 0 3.3 0 5 0 C6.70848585 8.69774613 4.84965171 16.49505943 3 25 C2.78601563 26.0003125 2.57203125 27.000625 2.3515625 28.03125 C1.91638317 30.02424519 1.46129412 32.01288687 1 34 C2.98 34 4.96 34 7 34 C6.67 34.66 6.34 35.32 6 36 C1.71 36 -2.58 36 -7 36 C-6.67 35.01 -6.34 34.02 -6 33 C-6 33.66 -6 34.32 -6 35 C-4.68 35 -3.36 35 -2 35 C-1.30578024 31.1223141 -0.61203034 27.24454446 0.08129883 23.36669922 C0.43221006 21.40457868 0.78348506 19.4425232 1.13476562 17.48046875 C1.46831055 15.61455078 1.46831055 15.61455078 1.80859375 13.7109375 C2.01282959 12.56931152 2.21706543 11.42768555 2.42749023 10.25146484 C2.96998519 7.17046366 3.49100215 4.08669377 4 1 C2.68 0.67 1.36 0.34 0 0 Z " fill="#59697B" transform="translate(327,45)"/>
<path d="M0 0 C0.66 0.33 1.32 0.66 2 1 C2.59765625 3.44140625 2.59765625 3.44140625 3.0625 6.5625 C3.22621094 7.64144531 3.38992188 8.72039063 3.55859375 9.83203125 C4.07686767 13.55167858 4.5695168 17.26914559 5 21 C3.68 21.33 2.36 21.66 1 22 C-2.44419134 10.47835991 -2.44419134 10.47835991 -2 5 C-2.66 5 -3.32 5 -4 5 C-4 4.34 -4 3.68 -4 3 C-2 1.375 -2 1.375 0 0 Z " fill="#FAA77C" transform="translate(302,55)"/>
<path d="M0 0 C2.46800047 1.15173355 4.04783565 2.04783565 6 4 C5.75 5.6875 5.75 5.6875 5 8 C4.649375 9.2375 4.29875 10.475 3.9375 11.75 C3.628125 12.8225 3.31875 13.895 3 15 C1.02 15 -0.96 15 -3 15 C-2.67 11.37 -2.34 7.74 -2 4 C-1.34 4 -0.68 4 0 4 C0 2.68 0 1.36 0 0 Z " fill="#F15F55" transform="translate(81,45)"/>
<path d="M0 0 C6.27 0.33 12.54 0.66 19 1 C20.125 11.125 20.125 11.125 19.22265625 15.69140625 C19.03896484 16.65498047 18.85527344 17.61855469 18.66601562 18.61132812 C18.46685547 19.58521484 18.26769531 20.55910156 18.0625 21.5625 C17.86720703 22.57119141 17.67191406 23.57988281 17.47070312 24.61914062 C16.99214211 27.081979 16.50174537 29.54179947 16 32 C11.50675271 23.53615553 16.25637639 10.94554723 18 2 C12.06 2 6.12 2 0 2 C0 1.34 0 0.68 0 0 Z " fill="#79849A" transform="translate(306,44)"/>
<path d="M0 0 C2.475 0.99 2.475 0.99 5 2 C4.83203125 4.32421875 4.83203125 4.32421875 4 7 C1.63671875 8.58203125 1.63671875 8.58203125 -1.3125 9.8125 C-2.76076172 10.44091797 -2.76076172 10.44091797 -4.23828125 11.08203125 C-7 12 -7 12 -11 12 C-10.34 10.68 -9.68 9.36 -9 8 C-8.34 8 -7.68 8 -7 8 C-7 7.34 -7 6.68 -7 6 C-6.030625 5.566875 -5.06125 5.13375 -4.0625 4.6875 C-0.72268235 3.2985139 -0.72268235 3.2985139 0 0 Z " fill="#FAAA7F" transform="translate(289,56)"/>
<path d="M0 0 C0.33 0 0.66 0 1 0 C1 1.98 1 3.96 1 6 C2.32 6 3.64 6 5 6 C5.11138159 11.45769811 4.91657981 16.61509359 4 22 C2.68 22 1.36 22 0 22 C0 14.74 0 7.48 0 0 Z " fill="#9B665B" transform="translate(121,54)"/>
<path d="M0 0 C0.66 0.33 1.32 0.66 2 1 C2.6328125 3.36328125 2.6328125 3.36328125 3.125 6.3125 C3.29257813 7.27800781 3.46015625 8.24351563 3.6328125 9.23828125 C4 12 4 12 4 16 C2.68 16 1.36 16 0 16 C0 14.68 0 13.36 0 12 C-1.32 12 -2.64 12 -4 12 C-4.50423019 6.70558305 -3.18923033 4.18586481 0 0 Z " fill="#EEB35B" transform="translate(124,24)"/>
<path d="M0 0 C2.13586678 3.20380017 2.23132175 4.01939967 2.125 7.6875 C2.10695313 8.49574219 2.08890625 9.30398437 2.0703125 10.13671875 C2.03550781 11.05904297 2.03550781 11.05904297 2 12 C1.34 12 0.68 12 0 12 C0 17.94 0 23.88 0 30 C-2.31 30 -4.62 30 -7 30 C-6.34 29.34 -5.68 28.68 -5 28 C-4.64731066 26.3373217 -4.31966139 24.66934283 -4 23 C-3.05754284 19.98008349 -2.03546287 16.98916641 -1 14 C-1.66 14 -2.32 14 -3 14 C-2 11 -2 11 -1 9 C-0.77532169 7.46331135 -0.59203195 5.92031946 -0.4375 4.375 C-0.35371094 3.55773437 -0.26992188 2.74046875 -0.18359375 1.8984375 C-0.12300781 1.27195312 -0.06242187 0.64546875 0 0 Z " fill="#CBB6C5" transform="translate(24,20)"/>
<path d="M0 0 C0 4.62 0 9.24 0 14 C-1.32 14 -2.64 14 -4 14 C-3.67 12.35 -3.34 10.7 -3 9 C-3.99 8.67 -4.98 8.34 -6 8 C-6.33 5.69 -6.66 3.38 -7 1 C-3.375 -1.125 -3.375 -1.125 0 0 Z " fill="#955F5A" transform="translate(242,36)"/>
<path d="M0 0 C0 0.66 0 1.32 0 2 C-0.99 2 -1.98 2 -3 2 C-3.33 3.65 -3.66 5.3 -4 7 C-4.66 6.67 -5.32 6.34 -6 6 C-6.66 9.3 -7.32 12.6 -8 16 C-8.99 15.01 -9.98 14.02 -11 13 C-10.75 9.6875 -10.75 9.6875 -10 6 C-9.814375 4.865625 -9.62875 3.73125 -9.4375 2.5625 C-9.293125 1.716875 -9.14875 0.87125 -9 0 C-5.62182575 -0.84454356 -3.32534757 -1.10844919 0 0 Z " fill="#85402D" transform="translate(31,17)"/>
<path d="M0 0 C-0.350625 0.94875 -0.70125 1.8975 -1.0625 2.875 C-2.46358424 7.64652464 -1.72145797 12.1545323 -1 17 C-1.99 17.33 -2.98 17.66 -4 18 C-5.02281518 20.09719872 -5.02281518 20.09719872 -5.6875 22.5625 C-5.93886719 23.38878906 -6.19023438 24.21507813 -6.44921875 25.06640625 C-6.63097656 25.70449219 -6.81273437 26.34257813 -7 27 C-8 24 -8 24 -6.8125 21.375 C-5.62502669 16.44241855 -7.67125444 13.330312 -10 9 C-9.34 9 -8.68 9 -8 9 C-7.54625 10.134375 -7.0925 11.26875 -6.625 12.4375 C-5.42904194 16.04721692 -5.42904194 16.04721692 -3 17 C-3.33 16.154375 -3.66 15.30875 -4 14.4375 C-5.08642319 10.70292029 -5.35825517 7.86915586 -5 4 C-2.74358974 0 -2.74358974 0 0 0 Z " fill="#475065" transform="translate(53,31)"/>
<path d="M0 0 C3 1 3 1 5 4 C5.37478243 7.52295483 5.41127245 9.34881863 3.5 12.375 C3.005 12.91125 2.51 13.4475 2 14 C1.01 13.67 0.02 13.34 -1 13 C-1.02686553 11.02090602 -1.04633375 9.04171029 -1.0625 7.0625 C-1.07410156 5.96035156 -1.08570313 4.85820313 -1.09765625 3.72265625 C-1 1 -1 1 0 0 Z " fill="#535F74" transform="translate(200,41)"/>
<path d="M0 0 C1.2065625 0.0309375 1.2065625 0.0309375 2.4375 0.0625 C4.03830151 4.06450378 2.73029692 7.10806236 1.4375 11.0625 C-0.5425 11.0625 -2.5225 11.0625 -4.5625 11.0625 C-4.42207123 9.41619672 -4.27500671 7.77045821 -4.125 6.125 C-4.04378906 5.20847656 -3.96257812 4.29195312 -3.87890625 3.34765625 C-3.43241544 0.12300042 -3.2948538 0.08036229 0 0 Z " fill="#CF9578" transform="translate(180.5625,14.9375)"/>
<path d="M0 0 C0.66 0 1.32 0 2 0 C2.06058594 0.72445313 2.12117188 1.44890625 2.18359375 2.1953125 C2.61483433 7.17116533 3.07047641 12.08680391 4 17 C3.01 16.67 2.02 16.34 1 16 C-0.1875 12.4375 -0.1875 12.4375 -1 9 C-1.99 9 -2.98 9 -4 9 C-4 8.34 -4 7.68 -4 7 C-5.65 6.67 -7.3 6.34 -9 6 C-9 5.67 -9 5.34 -9 5 C-7.329375 4.87625 -7.329375 4.87625 -5.625 4.75 C-1.94246056 4.42126213 -1.94246056 4.42126213 -0.5625 1.9375 C-0.376875 1.298125 -0.19125 0.65875 0 0 Z " fill="#B27A5B" transform="translate(46,31)"/>
<path d="M0 0 C1.66611905 -0.042721 3.33382885 -0.04063832 5 0 C6 1 6 1 6.09765625 2.84765625 C6.06510417 4.8984375 6.03255208 6.94921875 6 9 C5.34 9 4.68 9 4 9 C4 9.66 4 10.32 4 11 C2.35 11 0.7 11 -1 11 C-0.67 10.01 -0.34 9.02 0 8 C-0.32670903 5.99890722 -0.65977214 3.99883869 -1 2 C-0.67 1.34 -0.34 0.68 0 0 Z " fill="#EDA37C" transform="translate(294,15)"/>
<path d="M0 0 C2.64 0 5.28 0 8 0 C7.67 3.3 7.34 6.6 7 10 C4.69 9.01 2.38 8.02 0 7 C0 4.69 0 2.38 0 0 Z " fill="#5E73A2" transform="translate(292,36)"/>
<path d="M0 0 C1.67542976 0.28604898 3.34385343 0.61781233 5 1 C5.33 4.3 5.66 7.6 6 11 C3.6875 10.8125 3.6875 10.8125 1 10 C-0.875 7.6875 -0.875 7.6875 -2 5 C-1.75495152 2.79456367 -1.57580336 1.57580336 0 0 Z " fill="#745557" transform="translate(124,15)"/>
<path d="M0 0 C2.97 0.495 2.97 0.495 6 1 C6 1.66 6 2.32 6 3 C9.96 3 13.92 3 18 3 C17.67 3.66 17.34 4.32 17 5 C12.71 5 8.42 5 4 5 C3.67 6.32 3.34 7.64 3 9 C1.68 8.34 0.36 7.68 -1 7 C-0.67 4.69 -0.34 2.38 0 0 Z " fill="#F7C182" transform="translate(62,75)"/>
<path d="M0 0 C0.99 0.33 1.98 0.66 3 1 C3 2.32 3 3.64 3 5 C2.34 5 1.68 5 1 5 C1.33 5.99 1.66 6.98 2 8 C2.07029121 10.57265818 2.09370832 13.11641431 2.0625 15.6875 C2.05798828 16.38939453 2.05347656 17.09128906 2.04882812 17.81445312 C2.03706927 19.54300538 2.01913454 21.27151365 2 23 C1.01 23 0.02 23 -1 23 C-1 21.02 -1 19.04 -1 17 C-0.34 17 0.32 17 1 17 C1 15.02 1 13.04 1 11 C0.34 11 -0.32 11 -1 11 C-1 10.34 -1 9.68 -1 9 C-1.66 9 -2.32 9 -3 9 C-3 8.34 -3 7.68 -3 7 C-2.34 7 -1.68 7 -1 7 C-1.020625 6.030625 -1.04125 5.06125 -1.0625 4.0625 C-1 1 -1 1 0 0 Z " fill="#F3BE5F" transform="translate(247,61)"/>
<path d="M0 0 C1.65 1.32 3.3 2.64 5 4 C4.72995846 7.96060927 4.51428214 9.53714607 1.5 12.25 C0.675 12.8275 -0.15 13.405 -1 14 C-1.33 14.66 -1.66 15.32 -2 16 C-3.32 15.67 -4.64 15.34 -6 15 C-6 14.34 -6 13.68 -6 13 C-5.38125 12.773125 -4.7625 12.54625 -4.125 12.3125 C-1.35436766 10.60122709 -0.85025761 9.09184586 0 6 C-0.33 5.34 -0.66 4.68 -1 4 C-0.5625 1.875 -0.5625 1.875 0 0 Z " fill="#A4675C" transform="translate(140,29)"/>
<path d="M0 0 C1.32 0 2.64 0 4 0 C4.33 4.62 4.66 9.24 5 14 C2.36 14 -0.28 14 -3 14 C-3 13.34 -3 12.68 -3 12 C-2.01 11.67 -1.02 11.34 0 11 C0 7.37 0 3.74 0 0 Z " fill="#F3B747" transform="translate(230,70)"/>
<path d="M0 0 C1.32 0 2.64 0 4 0 C4 5.28 4 10.56 4 16 C3.01 16 2.02 16 1 16 C-0.12862175 10.63904667 -0.09688221 5.44693314 0 0 Z " fill="#9C554B" transform="translate(132,60)"/>
<path d="M0 0 C0.99 0 1.98 0 3 0 C3 4.62 3 9.24 3 14 C2.01 14 1.02 14 0 14 C0 13.01 0 12.02 0 11 C-0.66 11 -1.32 11 -2 11 C-2.28571429 3.57142857 -2.28571429 3.57142857 0 0 Z " fill="#48576F" transform="translate(158,41)"/>
<path d="M0 0 C0.33 0.66 0.66 1.32 1 2 C1.66 2 2.32 2 3 2 C3.20413361 7.73842251 3.27141454 12.60539047 1 18 C-0.32 18 -1.64 18 -3 18 C-3 16.68 -3 15.36 -3 14 C-2.34 14 -1.68 14 -1 14 C-0.67 9.38 -0.34 4.76 0 0 Z " fill="#D79972" transform="translate(169,32)"/>
<path d="M0 0 C1.65 0 3.3 0 5 0 C5.81627446 2.39460588 6.62811645 4.79056526 7.4375 7.1875 C7.66759766 7.86103516 7.89769531 8.53457031 8.13476562 9.22851562 C9.33524085 12.79514491 10.37277495 16.2871161 11 20 C10.34 20 9.68 20 9 20 C9 22.64 9 25.28 9 28 C8.67 27.34 8.34 26.68 8 26 C7.34 26 6.68 26 6 26 C5.875 23.625 5.875 23.625 6 21 C6.66 20.34 7.32 19.68 8 19 C7.87171563 17.03799289 7.87171563 17.03799289 7.25 14.875 C6.95222656 13.68197266 6.95222656 13.68197266 6.6484375 12.46484375 C6.43445313 11.65144531 6.22046875 10.83804688 6 10 C5.62422363 8.47935831 5.24915965 6.9585403 4.875 5.4375 C4.58625 4.303125 4.2975 3.16875 4 2 C2.68 1.67 1.36 1.34 0 1 C0 0.67 0 0.34 0 0 Z " fill="#724954" transform="translate(17,50)"/>
<path d="M0 0 C1.32 0.33 2.64 0.66 4 1 C4.33 2.65 4.66 4.3 5 6 C5.99 4.35 6.98 2.7 8 1 C9.35015859 5.05047576 8.62084998 7.7920168 8 12 C6.68 12 5.36 12 4 12 C3.32645501 10.56570999 2.66140299 9.12742943 2 7.6875 C1.62875 6.88699219 1.2575 6.08648437 0.875 5.26171875 C0 3 0 3 0 0 Z " fill="#A06B62" transform="translate(228,45)"/>
<path d="M0 0 C2.64 0 5.28 0 8 0 C7.01 0.66 6.02 1.32 5 2 C4.34 1.67 3.68 1.34 3 1 C3 2.98 3 4.96 3 7 C3.99 7.33 4.98 7.66 6 8 C5.67 9.32 5.34 10.64 5 12 C3.68 12 2.36 12 1 12 C1 11.34 1 10.68 1 10 C0.01 9.67 -0.98 9.34 -2 9 C-1.67 8.01 -1.34 7.02 -1 6 C-0.34 6 0.32 6 1 6 C0.67 4.02 0.34 2.04 0 0 Z " fill="#BAA4BE" transform="translate(241,44)"/>
<path d="M0 0 C0.66 0 1.32 0 2 0 C2 0.66 2 1.32 2 2 C3.32 2 4.64 2 6 2 C6 2.66 6 3.32 6 4 C4.02 4.33 2.04 4.66 0 5 C0 5.66 0 6.32 0 7 C7.26 7 14.52 7 22 7 C22 7.33 22 7.66 22 8 C13.42 8 4.84 8 -4 8 C-3.01 7.67 -2.02 7.34 -1 7 C-1.20625 6.21625 -1.4125 5.4325 -1.625 4.625 C-1.74875 3.75875 -1.8725 2.8925 -2 2 C-1.34 1.34 -0.68 0.68 0 0 Z " fill="#28435E" transform="translate(26,74)"/>
<path d="M0 0 C0.99 0.33 1.98 0.66 3 1 C3.94921875 3.36328125 3.94921875 3.36328125 4.6875 6.3125 C4.93886719 7.27800781 5.19023437 8.24351563 5.44921875 9.23828125 C6 12 6 12 6 16 C5.01 16 4.02 16 3 16 C2.49193553 14.27318563 1.99389533 12.54342021 1.5 10.8125 C1.08234375 9.36810547 1.08234375 9.36810547 0.65625 7.89453125 C0.03322392 5.14654124 -0.12302812 2.80401584 0 0 Z " fill="#DB9062" transform="translate(186,34)"/>
<path d="M0 0 C1.22596039 3.67788118 0.84310077 4.78449613 0 9 C-4.29 9 -8.58 9 -13 9 C-13 8.34 -13 7.68 -13 7 C-13.99 7.33 -14.98 7.66 -16 8 C-16 7.01 -16 6.02 -16 5 C-12.67465243 3.89155081 -10.37817425 4.15545644 -7 5 C-7 5.66 -7 6.32 -7 7 C-4.03 7.495 -4.03 7.495 -1 8 C-1.020625 7.05125 -1.04125 6.1025 -1.0625 5.125 C-1 2 -1 2 0 0 Z " fill="#7F8FA8" transform="translate(319,72)"/>
<path d="M0 0 C1.32 0 2.64 0 4 0 C4 1.98 4 3.96 4 6 C0.04 6 -3.92 6 -8 6 C-8 5.01 -8 4.02 -8 3 C-6.865625 2.87625 -5.73125 2.7525 -4.5625 2.625 C-3.386875 2.41875 -2.21125 2.2125 -1 2 C-0.67 1.34 -0.34 0.68 0 0 Z " fill="#FABB49" transform="translate(76,72)"/>
<path d="M0 0 C0.99 0 1.98 0 3 0 C3 5.28 3 10.56 3 16 C2.01 16 1.02 16 0 16 C0 10.72 0 5.44 0 0 Z " fill="#D49266" transform="translate(174,60)"/>
<path d="M0 0 C0.66 0 1.32 0 2 0 C2.02690844 2.62506802 2.04679404 5.24986173 2.0625 7.875 C2.07087891 8.62136719 2.07925781 9.36773437 2.08789062 10.13671875 C2.11328125 15.7734375 2.11328125 15.7734375 1 18 C-0.65 18 -2.3 18 -4 18 C-3.566875 16.80503906 -3.566875 16.80503906 -3.125 15.5859375 C-2.75375 14.52632812 -2.3825 13.46671875 -2 12.375 C-1.62875 11.33085938 -1.2575 10.28671875 -0.875 9.2109375 C0.00483564 5.98225494 0.15988262 3.32755706 0 0 Z " fill="#F1EEEE" transform="translate(34,51)"/>
<path d="M0 0 C0.33 0.66 0.66 1.32 1 2 C1.66 2 2.32 2 3 2 C2.49396008 4.16874252 2.00016187 5.99967627 1 8 C1.66 8 2.32 8 3 8 C3 9.32 3 10.64 3 12 C1.125 11.6875 1.125 11.6875 -1 11 C-3 8 -3 8 -3 4 C-2.34 4 -1.68 4 -1 4 C-0.67 2.68 -0.34 1.36 0 0 Z " fill="#E9A07C" transform="translate(287,30)"/>
<path d="M0 0 C4 1 4 1 7 3 C7.1875 5.625 7.1875 5.625 7 8 C4.92446352 8.5534764 3.15634036 9 1 9 C0.67 6.03 0.34 3.06 0 0 Z " fill="#EB6452" transform="translate(133,25)"/>
<path d="M0 0 C0.99 0 1.98 0 3 0 C3.33 2.31 3.66 4.62 4 7 C0.25 8.125 0.25 8.125 -2 7 C-2 6.34 -2 5.68 -2 5 C-2.66 4.67 -3.32 4.34 -4 4 C-3.34 4 -2.68 4 -2 4 C-1.34 2.68 -0.68 1.36 0 0 Z " fill="#576579" transform="translate(222,42)"/>
<path d="M0 0 C2 1 4 2 6 3 C5.67 5.64 5.34 8.28 5 11 C4.01 10.67 3.02 10.34 2 10 C0.47839986 6.3962102 0 3.94779314 0 0 Z " fill="#F2F2F7" transform="translate(23,52)"/>
<path d="M0 0 C2.64 0 5.28 0 8 0 C8.5625 1.9375 8.5625 1.9375 9 4 C8 5 8 5 4.9375 5.0625 C3.968125 5.041875 2.99875 5.02125 2 5 C1.34 3.35 0.68 1.7 0 0 Z " fill="#A5675A" transform="translate(238,56)"/>
<path d="M0 0 C4.62 0 9.24 0 14 0 C13.67 0.66 13.34 1.32 13 2 C11.68 2 10.36 2 9 2 C9.33 2.66 9.66 3.32 10 4 C7.36 4 4.72 4 2 4 C1.34 2.68 0.68 1.36 0 0 Z " fill="#435470" transform="translate(31,70)"/>
<path d="M0 0 C0.66 0 1.32 0 2 0 C2 1.98 2 3.96 2 6 C2.99 6.33 3.98 6.66 5 7 C4.67 7.99 4.34 8.98 4 10 C2.68 10 1.36 10 0 10 C0 9.34 0 8.68 0 8 C-0.66 8 -1.32 8 -2 8 C-2 6.68 -2 5.36 -2 4 C-1.34 4 -0.68 4 0 4 C0 2.68 0 1.36 0 0 Z " fill="#EB9952" transform="translate(28,66)"/>
<path d="M0 0 C2.78490859 3.91950098 1.81114407 7.78612016 1.125 12.25 C1.02058594 12.99507812 0.91617187 13.74015625 0.80859375 14.5078125 C0.55018787 16.34014511 0.27657918 18.17032234 0 20 C-1.92637348 16.79675827 -2.16375395 14.80879562 -1.6875 11.125 C-1.57921875 10.25359375 -1.4709375 9.3821875 -1.359375 8.484375 C-0.94902234 5.64758925 -0.51930203 2.81906817 0 0 Z " fill="#5D7286" transform="translate(322,56)"/>
<path d="M0 0 C4.27807533 6.41711299 4.36687806 13.61885845 3 21 C2.67 21 2.34 21 2 21 C0.49025965 13.90961228 -0.28307925 7.24997422 0 0 Z " fill="#DDE0DA" transform="translate(185,36)"/>
<path d="M0 0 C0.66 0 1.32 0 2 0 C2 0.66 2 1.32 2 2 C3.98 2 5.96 2 8 2 C8 2.33 8 2.66 8 3 C6.35 3 4.7 3 3 3 C2.67 4.65 2.34 6.3 2 8 C1.67 8 1.34 8 1 8 C1 6.35 1 4.7 1 3 C-4.94 3 -10.88 3 -17 3 C-17 2.67 -17 2.34 -17 2 C-11.39 2 -5.78 2 0 2 C0 1.34 0 0.68 0 0 Z " fill="#34425A" transform="translate(324,42)"/>
<path d="M0 0 C0.66 0 1.32 0 2 0 C2 2.64 2 5.28 2 8 C4.64 8 7.28 8 10 8 C10 8.66 10 9.32 10 10 C6.7 10 3.4 10 0 10 C0 6.7 0 3.4 0 0 Z " fill="#83AA51" transform="translate(174,36)"/>
<path d="M0 0 C0.33 0 0.66 0 1 0 C1.02725341 1.7290774 1.04650987 3.45828176 1.0625 5.1875 C1.07410156 6.15042969 1.08570313 7.11335938 1.09765625 8.10546875 C1.00486622 10.85576513 0.62111685 13.32479591 0 16 C-0.33 15.34 -0.66 14.68 -1 14 C-1.66 14 -2.32 14 -3 14 C-2.855625 13.34 -2.71125 12.68 -2.5625 12 C-2.10727975 9.57215869 -1.77769407 7.20076037 -1.5 4.75 C-1 1 -1 1 0 0 Z " fill="#E0DFE1" transform="translate(173,35)"/>
<path d="M0 0 C0.33 1.32 0.66 2.64 1 4 C1.66 4 2.32 4 3 4 C2.25 6.4375 2.25 6.4375 1 9 C-1.125 9.8125 -1.125 9.8125 -3 10 C-3.66 8.68 -4.32 7.36 -5 6 C-3.68 6 -2.36 6 -1 6 C-0.67 4.02 -0.34 2.04 0 0 Z " fill="#A56B60" transform="translate(119,32)"/>
<path d="M0 0 C1.32 0.33 2.64 0.66 4 1 C4.625 3.375 4.625 3.375 5 6 C4.34 6.66 3.68 7.32 3 8 C2.01 8 1.02 8 0 8 C0 5.36 0 2.72 0 0 Z " fill="#455466" transform="translate(259,39)"/>
<path d="M0 0 C0.66 0 1.32 0 2 0 C3.00496852 3.01490557 3.10335303 5.04181692 3.0625 8.1875 C3.05347656 9.08855469 3.04445312 9.98960938 3.03515625 10.91796875 C3.02355469 11.60503906 3.01195312 12.29210938 3 13 C2.34 13 1.68 13 1 13 C-0.32229189 10.35541621 -0.09677194 8.32238699 -0.0625 5.375 C-0.05347656 4.37210938 -0.04445312 3.36921875 -0.03515625 2.3359375 C-0.02355469 1.56507812 -0.01195312 0.79421875 0 0 Z " fill="#F7B253" transform="translate(131,25)"/>
<path d="M0 0 C0.33 0 0.66 0 1 0 C1.125 5.75 1.125 5.75 0 8 C-0.66 8 -1.32 8 -2 8 C-2.33 8.99 -2.66 9.98 -3 11 C-3 10.34 -3 9.68 -3 9 C-3.66 9 -4.32 9 -5 9 C-4.34 6.69 -3.68 4.38 -3 2 C-2.01 2 -1.02 2 0 2 C0 1.34 0 0.68 0 0 Z " fill="#CE8C67" transform="translate(31,17)"/>
<path d="M0 0 C7.75 0.875 7.75 0.875 10 2 C10 2.66 10 3.32 10 4 C6.7 4 3.4 4 0 4 C0 2.68 0 1.36 0 0 Z " fill="#DE8C58" transform="translate(32,36)"/>
<path d="M0 0 C0.33 0 0.66 0 1 0 C1.66 5.61 2.32 11.22 3 17 C1.68 17.33 0.36 17.66 -1 18 C-1.33 16.68 -1.66 15.36 -2 14 C-1.34 14 -0.68 14 0 14 C0 9.38 0 4.76 0 0 Z " fill="#F0C3AF" transform="translate(304,59)"/>
<path d="M0 0 C2.46800047 1.15173355 4.04783565 2.04783565 6 4 C5.75 6.0625 5.75 6.0625 5 8 C4.01 8.495 4.01 8.495 3 9 C2.67 8.01 2.34 7.02 2 6 C-0.00016466 4.79117904 -0.00016466 4.79117904 -2 4 C-1.34 4 -0.68 4 0 4 C0 2.68 0 1.36 0 0 Z " fill="#EC6D5B" transform="translate(81,45)"/>
<path d="M0 0 C2.64 0 5.28 0 8 0 C8 1.32 8 2.64 8 4 C5.36 4 2.72 4 0 4 C0 2.68 0 1.36 0 0 Z " fill="#D3636E" transform="translate(292,32)"/>
<path d="M0 0 C0.66 0 1.32 0 2 0 C2 2.97 2 5.94 2 9 C0.68 9 -0.64 9 -2 9 C-2.25 3.375 -2.25 3.375 0 0 Z " fill="#F0615E" transform="translate(122,27)"/>
<path d="M0 0 C1.65 0 3.3 0 5 0 C5.5625 1.9375 5.5625 1.9375 6 4 C5 5 5 5 1.9375 5.0625 C0.4834375 5.0315625 0.4834375 5.0315625 -1 5 C-0.67 3.35 -0.34 1.7 0 0 Z " fill="#505C72" transform="translate(79,20)"/>
<path d="M0 0 C0.33 0.66 0.66 1.32 1 2 C1.66 1.67 2.32 1.34 3 1 C5.6723621 0.86584528 8.32250488 0.95681459 11 1 C11 1.99 11 2.98 11 4 C7.7 4 4.4 4 1 4 C0.67 2.68 0.34 1.36 0 0 Z " fill="#F6AC40" transform="translate(79,61)"/>
<path d="M0 0 C1.65 0 3.3 0 5 0 C4.67 1.98 4.34 3.96 4 6 C2.35 6 0.7 6 -1 6 C-0.67 4.02 -0.34 2.04 0 0 Z " fill="#A7B9CD" transform="translate(124,40)"/>
<path d="M0 0 C1.9375 0.3125 1.9375 0.3125 4 1 C4.33 1.99 4.66 2.98 5 4 C5.66 4.33 6.32 4.66 7 5 C5.68 5 4.36 5 3 5 C3 5.66 3 6.32 3 7 C2.01 7 1.02 7 0 7 C0 4.69 0 2.38 0 0 Z " fill="#50607A" transform="translate(111,33)"/>
<path d="M0 0 C2.13586678 3.20380017 2.23132175 4.01939967 2.125 7.6875 C2.10695313 8.49574219 2.08890625 9.30398437 2.0703125 10.13671875 C2.03550781 11.05904297 2.03550781 11.05904297 2 12 C1.34 12 0.68 12 0 12 C0 12.66 0 13.32 0 14 C-0.99 14 -1.98 14 -3 14 C-2 11 -2 11 -1 9 C-0.77532169 7.46331135 -0.59203195 5.92031946 -0.4375 4.375 C-0.35371094 3.55773437 -0.26992188 2.74046875 -0.18359375 1.8984375 C-0.12300781 1.27195312 -0.06242187 0.64546875 0 0 Z " fill="#E2BD8A" transform="translate(24,20)"/>
<path d="M0 0 C0.33 0 0.66 0 1 0 C1 1.98 1 3.96 1 6 C2.32 6 3.64 6 5 6 C5 8.97 5 11.94 5 15 C0.41317394 9.37743903 -0.11470449 7.11167844 0 0 Z " fill="#B47C76" transform="translate(121,54)"/>
<path d="M0 0 C0.33 1.32 0.66 2.64 1 4 C1.598125 4.103125 2.19625 4.20625 2.8125 4.3125 C5.28243264 5.08876455 6.32251235 6.07088921 8 8 C5.36 8 2.72 8 0 8 C0 5.36 0 2.72 0 0 Z " fill="#C6A6BA" transform="translate(93,76)"/>
<path d="M0 0 C1.32 0 2.64 0 4 0 C4 2.97 4 5.94 4 9 C4.99 9 5.98 9 7 9 C7 9.66 7 10.32 7 11 C6.01 11.495 6.01 11.495 5 12 C4.34227572 15.02934491 4.34227572 15.02934491 4 18 C3.67 18 3.34 18 3 18 C3 12.39 3 6.78 3 1 C2.01 0.67 1.02 0.34 0 0 Z " fill="#C8896F" transform="translate(79,25)"/>
<path d="M0 0 C1.32 0 2.64 0 4 0 C3.67 2.31 3.34 4.62 3 7 C1.02 7 -0.96 7 -3 7 C-2.34 6.67 -1.68 6.34 -1 6 C-0.34227572 2.97065509 -0.34227572 2.97065509 0 0 Z " fill="#CD8058" transform="translate(179,19)"/>
<path d="M0 0 C0 0.66 0 1.32 0 2 C-0.99 2 -1.98 2 -3 2 C-3.33 3.65 -3.66 5.3 -4 7 C-4.66 6.67 -5.32 6.34 -6 6 C-6.625 2.9375 -6.625 2.9375 -7 0 C-3.86650268 -1.04449911 -3.01031744 -0.93423645 0 0 Z " fill="#8E5543" transform="translate(31,17)"/>
<path d="M0 0 C1.5 1.25 1.5 1.25 3 3 C3 4.32 3 5.64 3 7 C1.35 7 -0.3 7 -2 7 C-2.33 5.35 -2.66 3.7 -3 2 C-2.01 2 -1.02 2 0 2 C0 1.34 0 0.68 0 0 Z " fill="#F5F3EE" transform="translate(236,55)"/>
<path d="M0 0 C0.33 0 0.66 0 1 0 C1 1.65 1 3.3 1 5 C-0.65 4.67 -2.3 4.34 -4 4 C-4.33 7.63 -4.66 11.26 -5 15 C-5.33 15 -5.66 15 -6 15 C-6.33 10.71 -6.66 6.42 -7 2 C-4.69 2.33 -2.38 2.66 0 3 C0 2.01 0 1.02 0 0 Z " fill="#A2898C" transform="translate(258,40)"/>
<path d="M0 0 C0.66 0 1.32 0 2 0 C2.33 1.98 2.66 3.96 3 6 C0.36 6 -2.28 6 -5 6 C-5 5.34 -5 4.68 -5 4 C-3.35 3.67 -1.7 3.34 0 3 C0 2.01 0 1.02 0 0 Z " fill="#7D677C" transform="translate(232,78)"/>
<path d="M0 0 C0.33 1.32 0.66 2.64 1 4 C0.34 4 -0.32 4 -1 4 C-1 6.64 -1 9.28 -1 12 C-1.33 11.34 -1.66 10.68 -2 10 C-2.66 10 -3.32 10 -4 10 C-4.41176754 6.39703406 -4.1535853 5.21597933 -2 2.1875 C-1.34 1.465625 -0.68 0.74375 0 0 Z " fill="#706E79" transform="translate(27,66)"/>
<path d="M0 0 C0.66 0 1.32 0 2 0 C2 0.66 2 1.32 2 2 C2.66 2 3.32 2 4 2 C4 3.98 4 5.96 4 8 C3.01 8 2.02 8 1 8 C-0.35439668 5.29120665 -0.06501451 2.99066732 0 0 Z " fill="#F9BB44" transform="translate(244,70)"/>
<path d="M0 0 C1.9375 0.75 1.9375 0.75 4 2 C4.875 4 4.875 4 5 6 C4.34 6.66 3.68 7.32 3 8 C3 7.34 3 6.68 3 6 C2.01 6 1.02 6 0 6 C0 4.02 0 2.04 0 0 Z " fill="#9F675E" transform="translate(244,45)"/>
<path d="M0 0 C0.33 1.32 0.66 2.64 1 4 C1.66 3.67 2.32 3.34 3 3 C3 2.34 3 1.68 3 1 C4.32 1 5.64 1 7 1 C7 1.66 7 2.32 7 3 C6.34 3 5.68 3 5 3 C5 3.99 5 4.98 5 6 C3.68 6 2.36 6 1 6 C0.67 6.99 0.34 7.98 0 9 C0 6.03 0 3.06 0 0 Z " fill="#C0C5D1" transform="translate(161,43)"/>
<path d="M0 0 C1.32 0.33 2.64 0.66 4 1 C3.25 3.4375 3.25 3.4375 2 6 C-0.125 6.8125 -0.125 6.8125 -2 7 C-1.34 4.69 -0.68 2.38 0 0 Z " fill="#F0EDEC" transform="translate(137,34)"/>
<path d="M0 0 C0.66 0 1.32 0 2 0 C2 0.99 2 1.98 2 3 C2.66 3.33 3.32 3.66 4 4 C3.67 5.65 3.34 7.3 3 9 C1.68 8.34 0.36 7.68 -1 7 C-0.67 4.69 -0.34 2.38 0 0 Z " fill="#BFA9CB" transform="translate(62,75)"/>
<path d="M0 0 C1.98 0.99 1.98 0.99 4 2 C4 4.31 4 6.62 4 9 C0.06153846 5.67692308 0.06153846 5.67692308 -0.25 2.25 C-0.1675 1.5075 -0.085 0.765 0 0 Z " fill="#6A7CA5" transform="translate(273,68)"/>
<path d="M0 0 C1.32 0.33 2.64 0.66 4 1 C3.67 3.31 3.34 5.62 3 8 C2.67 6.68 2.34 5.36 2 4 C0.68 4 -0.64 4 -2 4 C-1.34 2.68 -0.68 1.36 0 0 Z " fill="#F9C160" transform="translate(78,68)"/>
<path d="M0 0 C2.64 0 5.28 0 8 0 C7.34 1.32 6.68 2.64 6 4 C4.68 4 3.36 4 2 4 C2 3.34 2 2.68 2 2 C1.34 2 0.68 2 0 2 C0 1.34 0 0.68 0 0 Z " fill="#FBB739" transform="translate(236,62)"/>
<path d="M0 0 C2.475 0.99 2.475 0.99 5 2 C4.67 3.65 4.34 5.3 4 7 C1.525 6.01 1.525 6.01 -1 5 C-0.67 3.35 -0.34 1.7 0 0 Z " fill="#F1A987" transform="translate(289,56)"/>
<path d="M0 0 C3 1 3 1 4.1875 2.8125 C5 5 5 5 5 9 C4.01 8.67 3.02 8.34 2 8 C0.5522078 5.10441559 0 3.25811062 0 0 Z " fill="#E6E1E6" transform="translate(45,39)"/>
<path d="M0 0 C0.99 0 1.98 0 3 0 C3 0.66 3 1.32 3 2 C3.66 2 4.32 2 5 2 C5 2.66 5 3.32 5 4 C2.09399739 5.25664978 0.20395416 6 -3 6 C-2.67 5.01 -2.34 4.02 -2 3 C-1.34 3 -0.68 3 0 3 C0 2.01 0 1.02 0 0 Z " fill="#FEA475" transform="translate(287,60)"/>
<path d="M0 0 C1.32 0.33 2.64 0.66 4 1 C4.33 2.98 4.66 4.96 5 7 C3.68 7 2.36 7 1 7 C0.67 4.69 0.34 2.38 0 0 Z " fill="#A0685D" transform="translate(235,37)"/>
<path d="M0 0 C1.65 0 3.3 0 5 0 C5 0.99 5 1.98 5 3 C3.68 3 2.36 3 1 3 C0.67 4.32 0.34 5.64 0 7 C-1.125 2.25 -1.125 2.25 0 0 Z " fill="#AA6C48" transform="translate(294,15)"/>
<path d="M0 0 C2.97 0.495 2.97 0.495 6 1 C6 2.32 6 3.64 6 5 C4.35 5 2.7 5 1 5 C0.67 3.35 0.34 1.7 0 0 Z " fill="#D4906A" transform="translate(23,37)"/>
<path d="M0 0 C0.66 0 1.32 0 2 0 C1.01 3.3 0.02 6.6 -1 10 C-1.66 9.34 -2.32 8.68 -3 8 C-2.64700993 4.55834679 -1.95418308 2.93127462 0 0 Z " fill="#5A6B7D" transform="translate(51,31)"/>
<path d="M0 0 C2.625 0.9375 2.625 0.9375 5 2 C5 2.66 5 3.32 5 4 C2.69 4 0.38 4 -2 4 C-2 3.01 -2 2.02 -2 1 C-1.34 0.67 -0.68 0.34 0 0 Z " fill="#4E6B9E" transform="translate(135,80)"/>
<path d="M0 0 C0.33 0.66 0.66 1.32 1 2 C2.32 2 3.64 2 5 2 C5.33 1.34 5.66 0.68 6 0 C8.64 0.33 11.28 0.66 14 1 C13.67 1.66 13.34 2.32 13 3 C8.71 3 4.42 3 0 3 C0 2.01 0 1.02 0 0 Z " fill="#858FA0" transform="translate(320,78)"/>
<path d="M0 0 C0.33 0 0.66 0 1 0 C1 1.98 1 3.96 1 6 C2.32 6 3.64 6 5 6 C5 7.32 5 8.64 5 10 C1.125 9.125 1.125 9.125 0 8 C-0.14115161 5.32941149 -0.04247107 2.67567762 0 0 Z " fill="#F2E2D3" transform="translate(132,70)"/>
<path d="M0 0 C0.33 0 0.66 0 1 0 C1.33 1.98 1.66 3.96 2 6 C0.02 6.33 -1.96 6.66 -4 7 C-4 6.34 -4 5.68 -4 5 C-4.99 5 -5.98 5 -7 5 C-6.67 4.01 -6.34 3.02 -6 2 C-6 2.66 -6 3.32 -6 4 C-4.02 4 -2.04 4 0 4 C0 2.68 0 1.36 0 0 Z " fill="#E8A260" transform="translate(84,56)"/>
<path d="M0 0 C0.33 0 0.66 0 1 0 C1 2.64 1 5.28 1 8 C-0.32 8 -1.64 8 -3 8 C-3 6.68 -3 5.36 -3 4 C-2.34 4 -1.68 4 -1 4 C-0.67 2.68 -0.34 1.36 0 0 Z " fill="#DF8D5C" transform="translate(169,42)"/>
<path d="M0 0 C1.65 0 3.3 0 5 0 C5 2.31 5 4.62 5 7 C4.34 7 3.68 7 3 7 C2.01 4.69 1.02 2.38 0 0 Z " fill="#E8D7D5" transform="translate(246,43)"/>
<path d="M0 0 C1.32 0 2.64 0 4 0 C4 1.98 4 3.96 4 6 C2.68 5.67 1.36 5.34 0 5 C0 3.35 0 1.7 0 0 Z " fill="#4577AC" transform="translate(292,38)"/>
<path d="M0 0 C1.32 0 2.64 0 4 0 C4 1.32 4 2.64 4 4 C2.02 4 0.04 4 -2 4 C-1.34 2.68 -0.68 1.36 0 0 Z " fill="#8CAC64" transform="translate(172,80)"/>
<path d="M0 0 C0.66 0.33 1.32 0.66 2 1 C1.01 3.31 0.02 5.62 -1 8 C-0.34 8.33 0.32 8.66 1 9 C-0.65 9 -2.3 9 -4 9 C-3.34 8.67 -2.68 8.34 -2 8 C-2 5.69 -2 3.38 -2 1 C-1.34 0.67 -0.68 0.34 0 0 Z " fill="#B7BBC2" transform="translate(136,33)"/>
<path d="M0 0 C1.32 0 2.64 0 4 0 C4 1.98 4 3.96 4 6 C3.01 6.495 3.01 6.495 2 7 C2 6.01 2 5.02 2 4 C1.34 4 0.68 4 0 4 C0 2.68 0 1.36 0 0 Z " fill="#F15C5E" transform="translate(126,26)"/>
<path d="M0 0 C1.32 0.33 2.64 0.66 4 1 C4 1.99 4 2.98 4 4 C1.69 4 -0.62 4 -3 4 C-2.01 2.68 -1.02 1.36 0 0 Z " fill="#4867A4" transform="translate(120,80)"/>
<path d="M0 0 C0.99 0 1.98 0 3 0 C4.35439668 2.70879335 4.06501451 5.00933268 4 8 C3.67 7.01 3.34 6.02 3 5 C2.01 4.67 1.02 4.34 0 4 C0 2.68 0 1.36 0 0 Z " fill="#DEDED8" transform="translate(121,76)"/>
<path d="M0 0 C0.33 0.66 0.66 1.32 1 2 C1.99 2.33 2.98 2.66 4 3 C3.01 3 2.02 3 1 3 C1 5.64 1 8.28 1 11 C0.67 11 0.34 11 0 11 C-0.12375 9.906875 -0.2475 8.81375 -0.375 7.6875 C-0.75464801 3.92618198 -0.75464801 3.92618198 -3 1 C-2.01 0.67 -1.02 0.34 0 0 Z " fill="#DDD8DC" transform="translate(277,66)"/>
<path d="M0 0 C0.99 0.33 1.98 0.66 3 1 C2.67 3.97 2.34 6.94 2 10 C1.67 10 1.34 10 1 10 C0.67 6.7 0.34 3.4 0 0 Z " fill="#CB8E69" transform="translate(186,34)"/>
<path d="M0 0 C0 1.98 0 3.96 0 6 C-1.32 6 -2.64 6 -4 6 C-3.625 3.5625 -3.625 3.5625 -3 1 C-1 0 -1 0 0 0 Z " fill="#E39E7B" transform="translate(87,35)"/>
<path d="M0 0 C1.32 0 2.64 0 4 0 C3.67 1.98 3.34 3.96 3 6 C2.01 5.34 1.02 4.68 0 4 C0 2.68 0 1.36 0 0 Z " fill="#F1EBE9" transform="translate(231,46)"/>
<path d="M0 0 C1.32 0.33 2.64 0.66 4 1 C4 2.98 4 4.96 4 7 C3.01 7.495 3.01 7.495 2 8 C0.74335022 5.09399739 0 3.20395416 0 0 Z " fill="#995C58" transform="translate(228,45)"/>
<path d="M0 0 C3.3 0 6.6 0 10 0 C8.35 1.65 6.7 3.3 5 5 C5 4.01 5 3.02 5 2 C3.35 1.67 1.7 1.34 0 1 C0 0.67 0 0.34 0 0 Z " fill="#2F425A" transform="translate(333,36)"/>
<path d="M0 0 C1.65 0 3.3 0 5 0 C5 0.99 5 1.98 5 3 C3.35 3 1.7 3 0 3 C-0.33 3.66 -0.66 4.32 -1 5 C-0.67 3.35 -0.34 1.7 0 0 Z " fill="#825646" transform="translate(178,15)"/>
<path d="M0 0 C0.99 0 1.98 0 3 0 C3 1.98 3 3.96 3 6 C2.01 6 1.02 6 0 6 C0 4.02 0 2.04 0 0 Z " fill="#7C6075" transform="translate(246,78)"/>
<path d="M0 0 C0.33 0 0.66 0 1 0 C1 3.96 1 7.92 1 12 C0.67 12 0.34 12 0 12 C0 10.35 0 8.7 0 7 C-0.66 7 -1.32 7 -2 7 C-1.34 4.69 -0.68 2.38 0 0 Z " fill="#AE655B" transform="translate(134,63)"/>
<path d="M0 0 C0 1.32 0 2.64 0 4 C-2.97 3.505 -2.97 3.505 -6 3 C-6 2.34 -6 1.68 -6 1 C-4 0 -4 0 0 0 Z " fill="#F2A381" transform="translate(306,36)"/>
<path d="M0 0 C1.98 0.99 1.98 0.99 4 2 C4 3.32 4 4.64 4 6 C2.68 5.67 1.36 5.34 0 5 C0 3.35 0 1.7 0 0 Z " fill="#FDA878" transform="translate(286,36)"/>
<path d="M0 0 C0 1.65 0 3.3 0 5 C-2.475 4.01 -2.475 4.01 -5 3 C-5 2.34 -5 1.68 -5 1 C-3 0 -3 0 0 0 Z " fill="#927076" transform="translate(111,34)"/>
<path d="M0 0 C2.64 0 5.28 0 8 0 C7.67 0.99 7.34 1.98 7 3 C2.25 2.25 2.25 2.25 0 0 Z " fill="#4C627B" transform="translate(38,71)"/>
<path d="M0 0 C0.99 0.33 1.98 0.66 3 1 C3 2.32 3 3.64 3 5 C1.68 5 0.36 5 -1 5 C-0.67 3.35 -0.34 1.7 0 0 Z " fill="#FDB847" transform="translate(247,61)"/>
<path d="M0 0 C0.99 0 1.98 0 3 0 C2.25 5.75 2.25 5.75 0 8 C0 5.36 0 2.72 0 0 Z " fill="#A85A51" transform="translate(132,60)"/>
<path d="M0 0 C-0.66 1.32 -1.32 2.64 -2 4 C-2 3.34 -2 2.68 -2 2 C-4.64 1.67 -7.28 1.34 -10 1 C-10 0.67 -10 0.34 -10 0 C-2.25 -1.125 -2.25 -1.125 0 0 Z " fill="#577BAF" transform="translate(186,46)"/>
<path d="M0 0 C0.99 0.33 1.98 0.66 3 1 C3 2.32 3 3.64 3 5 C2.34 5 1.68 5 1 5 C1 4.34 1 3.68 1 3 C-0.32 2.67 -1.64 2.34 -3 2 C-2.01 1.34 -1.02 0.68 0 0 Z " fill="#1A2845" transform="translate(239,35)"/>
<path d="M0 0 C0.66 0 1.32 0 2 0 C2 1.98 2 3.96 2 6 C1.34 6 0.68 6 0 6 C0 5.34 0 4.68 0 4 C-0.66 4 -1.32 4 -2 4 C-1.34 2.68 -0.68 1.36 0 0 Z " fill="#EEEAE8" transform="translate(290,34)"/>
<path d="M0 0 C0.99 0 1.98 0 3 0 C2.67 2.97 2.34 5.94 2 9 C1.67 9 1.34 9 1 9 C0.67 6.03 0.34 3.06 0 0 Z " fill="#F1705E" transform="translate(133,25)"/>
</svg>
