<svg xmlns="http://www.w3.org/2000/svg" xmlns:xlink="http://www.w3.org/1999/xlink" version="1.1" style="shape-rendering:geometricPrecision; text-rendering:geometricPrecision; image-rendering:optimizeQuality; fill-rule:evenodd; clip-rule:evenodd" viewBox="120.49 110.21 258.97 286.29">
<g><path style="opacity:1" fill="#f4f4f4" d="M 183.5,110.5 C 187.515,112.373 191.849,113.373 196.5,113.5C 196.833,113.5 197.167,113.5 197.5,113.5C 197.611,114.117 197.944,114.617 198.5,115C 200.473,115.495 202.473,115.662 204.5,115.5C 207.436,116.515 208.769,118.682 208.5,122C 208.146,125.273 207.479,128.439 206.5,131.5C 204.777,133.78 204.111,136.447 204.5,139.5C 204.5,139.833 204.5,140.167 204.5,140.5C 202.882,143.171 202.215,146.171 202.5,149.5C 201.251,159.325 199.251,168.992 196.5,178.5C 194.627,182.515 193.627,186.849 193.5,191.5C 193.795,193.735 193.461,195.735 192.5,197.5C 190.248,203.187 188.914,209.187 188.5,215.5C 188.26,220.12 187.26,224.453 185.5,228.5C 184.5,228.833 183.833,229.5 183.5,230.5C 182.866,231.947 181.699,232.613 180,232.5C 171.747,231.049 163.581,229.216 155.5,227C 154.619,226.292 153.953,225.458 153.5,224.5C 153.5,221.5 153.5,218.5 153.5,215.5C 155.449,203.753 157.783,192.087 160.5,180.5C 161.924,178.485 162.59,176.152 162.5,173.5C 162.848,169.443 163.514,165.443 164.5,161.5C 166.163,159.562 166.829,157.228 166.5,154.5C 166.992,149.041 167.992,143.708 169.5,138.5C 171.04,136.162 171.706,133.495 171.5,130.5C 171.54,127.012 172.207,123.679 173.5,120.5C 174.924,118.485 175.59,116.152 175.5,113.5C 177.611,110.651 180.278,109.651 183.5,110.5 Z"/></g>
<g><path style="opacity:0.176" fill="#484848" d="M 183.5,110.5 C 188.12,110.74 192.453,111.74 196.5,113.5C 191.849,113.373 187.515,112.373 183.5,110.5 Z"/></g>
<g><path style="opacity:0.537" fill="#777777" d="M 197.5,113.5 C 199.201,113.966 200.701,113.966 202,113.5C 202.995,114.066 203.828,114.733 204.5,115.5C 202.473,115.662 200.473,115.495 198.5,115C 197.944,114.617 197.611,114.117 197.5,113.5 Z"/></g>
<g><path style="opacity:0.655" fill="#8f8f8f" d="M 175.5,113.5 C 175.59,116.152 174.924,118.485 173.5,120.5C 173.171,117.772 173.837,115.438 175.5,113.5 Z"/></g>
<g><path style="opacity:0.729" fill="#868686" d="M 154.5,123.5 C 151.833,123.5 149.167,123.5 146.5,123.5C 149.049,121.395 151.715,121.395 154.5,123.5 Z"/></g>
<g><path style="opacity:1" fill="#f3f3f3" d="M 146.5,123.5 C 149.167,123.5 151.833,123.5 154.5,123.5C 156.903,123.448 159.236,123.781 161.5,124.5C 162.209,125.404 163.209,125.737 164.5,125.5C 165.492,125.328 166.158,125.662 166.5,126.5C 167.15,128.435 167.483,130.435 167.5,132.5C 167.483,134.565 167.15,136.565 166.5,138.5C 164.777,140.78 164.111,143.447 164.5,146.5C 164.5,147.167 164.5,147.833 164.5,148.5C 162.96,150.838 162.294,153.505 162.5,156.5C 161.942,161.709 160.942,166.709 159.5,171.5C 157.735,174.123 157.068,177.123 157.5,180.5C 157.634,182.292 157.301,183.958 156.5,185.5C 154.989,188.544 154.322,191.878 154.5,195.5C 155.181,205.502 150.848,209.169 141.5,206.5C 139.095,205.232 136.428,204.565 133.5,204.5C 132.508,204.672 131.842,204.338 131.5,203.5C 130.597,200.609 130.264,197.609 130.5,194.5C 130.7,191.37 131.366,188.37 132.5,185.5C 133.434,184.432 133.768,183.099 133.5,181.5C 133.5,181.167 133.5,180.833 133.5,180.5C 134.434,179.432 134.768,178.099 134.5,176.5C 136.009,166.618 138.009,156.951 140.5,147.5C 141.434,146.432 141.768,145.099 141.5,143.5C 141.448,141.097 141.781,138.764 142.5,136.5C 143.434,135.432 143.768,134.099 143.5,132.5C 145.117,129.811 146.117,126.811 146.5,123.5 Z"/></g>
<g><path style="opacity:0.298" fill="#434343" d="M 164.5,125.5 C 163.209,125.737 162.209,125.404 161.5,124.5C 161.435,124.062 161.601,123.728 162,123.5C 162.995,124.066 163.828,124.733 164.5,125.5 Z"/></g>
<g><path style="opacity:0.118" fill="#4e4e4e" d="M 166.5,126.5 C 167.947,127.134 168.613,128.301 168.5,130C 168.472,131.07 168.139,131.903 167.5,132.5C 167.483,130.435 167.15,128.435 166.5,126.5 Z"/></g>
<g><path style="opacity:0.937" fill="#9c9c9c" d="M 146.5,123.5 C 146.117,126.811 145.117,129.811 143.5,132.5C 143.446,129.008 144.446,126.008 146.5,123.5 Z"/></g>
<g><path style="opacity:0.663" fill="#7e7e7e" d="M 206.5,131.5 C 206.198,134.373 205.531,137.039 204.5,139.5C 204.111,136.447 204.777,133.78 206.5,131.5 Z"/></g>
<g><path style="opacity:0.325" fill="#414141" d="M 143.5,132.5 C 143.768,134.099 143.434,135.432 142.5,136.5C 142.062,136.565 141.728,136.399 141.5,136C 142.085,134.698 142.751,133.531 143.5,132.5 Z"/></g>
<g><path style="opacity:0.38" fill="#6f6f6f" d="M 171.5,130.5 C 171.706,133.495 171.04,136.162 169.5,138.5C 169.565,135.572 170.232,132.905 171.5,130.5 Z"/></g>
<g><path style="opacity:0.667" fill="#69490c" d="M 256.5,142.5 C 251.19,138.17 245.524,137.503 239.5,140.5C 239.414,139.504 239.748,138.671 240.5,138C 245.29,136.087 249.956,136.42 254.5,139C 255.823,139.816 256.489,140.983 256.5,142.5 Z"/></g>
<g><path style="opacity:0.678" fill="#7c7c7c" d="M 329.5,141.5 C 325.181,140.751 320.848,140.585 316.5,141C 315.627,142.045 314.627,142.878 313.5,143.5C 314.242,140.45 316.242,138.783 319.5,138.5C 323.02,139.26 326.353,140.26 329.5,141.5 Z"/></g>
<g><path style="opacity:0.051" fill="#533c06" d="M 229.5,140.5 C 233.412,141.744 235.412,144.411 235.5,148.5C 234.833,147.5 234.167,146.5 233.5,145.5C 232.833,144.167 231.833,143.167 230.5,142.5C 230.167,141.833 229.833,141.167 229.5,140.5 Z"/></g>
<g><path style="opacity:1" fill="#f6f6f6" d="M 329.5,141.5 C 330.167,141.5 330.833,141.5 331.5,141.5C 333.838,143.04 336.505,143.706 339.5,143.5C 341.099,143.232 342.432,143.566 343.5,144.5C 343.833,145.5 344.5,146.167 345.5,146.5C 347.743,148.838 348.076,151.504 346.5,154.5C 345.076,156.515 344.41,158.848 344.5,161.5C 344.675,163.621 344.341,165.621 343.5,167.5C 342.566,168.568 342.232,169.901 342.5,171.5C 341.215,174.589 340.549,177.922 340.5,181.5C 340.3,184.63 339.634,187.63 338.5,190.5C 337.215,193.589 336.549,196.922 336.5,200.5C 336.5,201.5 336.5,202.5 336.5,203.5C 335.069,204.78 334.402,206.447 334.5,208.5C 334.5,209.5 334.5,210.5 334.5,211.5C 332.777,213.78 332.111,216.447 332.5,219.5C 332.795,221.735 332.461,223.735 331.5,225.5C 329.187,230.688 327.854,236.354 327.5,242.5C 327.552,244.903 327.219,247.236 326.5,249.5C 324.837,251.438 324.171,253.772 324.5,256.5C 324.573,258.027 323.906,259.027 322.5,259.5C 318.833,259.5 315.167,259.5 311.5,259.5C 307.96,259.247 304.627,258.581 301.5,257.5C 299.485,256.076 297.152,255.41 294.5,255.5C 292.26,254.413 290.927,252.58 290.5,250C 292.452,240.445 294.452,230.945 296.5,221.5C 297.404,220.791 297.737,219.791 297.5,218.5C 297.366,216.708 297.699,215.042 298.5,213.5C 299.768,211.095 300.435,208.428 300.5,205.5C 301.805,196.975 303.472,188.641 305.5,180.5C 306.924,178.485 307.59,176.152 307.5,173.5C 308.286,168.118 309.286,162.784 310.5,157.5C 310.754,152.556 311.754,147.889 313.5,143.5C 314.627,142.878 315.627,142.045 316.5,141C 320.848,140.585 325.181,140.751 329.5,141.5 Z"/></g>
<g><path style="opacity:0.69" fill="#878787" d="M 166.5,138.5 C 166.198,141.373 165.531,144.039 164.5,146.5C 164.111,143.447 164.777,140.78 166.5,138.5 Z"/></g>
<g><path style="opacity:1" fill="#fba505" d="M 230.5,142.5 C 231.833,143.167 232.833,144.167 233.5,145.5C 234.855,149.244 234.688,152.911 233,156.5C 232.333,155.833 231.667,155.167 231,154.5C 229.62,157.058 228.12,157.058 226.5,154.5C 224.293,156.31 221.959,156.643 219.5,155.5C 218.909,153.15 217.909,150.983 216.5,149C 218.794,141.786 223.461,139.62 230.5,142.5 Z"/></g>
<g><path style="opacity:0.302" fill="#5b3a09" d="M 273.5,164.5 C 274.884,158.871 275.717,153.205 276,147.5C 271.346,141.837 266.18,140.837 260.5,144.5C 260.956,141.714 262.623,140.381 265.5,140.5C 269.958,141.312 273.791,143.312 277,146.5C 277.573,152.918 276.406,158.918 273.5,164.5 Z"/></g>
<g><path style="opacity:0.125" fill="#545454" d="M 331.5,141.5 C 334.428,141.565 337.095,142.232 339.5,143.5C 336.505,143.706 333.838,143.04 331.5,141.5 Z"/></g>
<g><path style="opacity:0.537" fill="#6c4d0a" d="M 229.5,140.5 C 226.482,140.335 223.482,140.502 220.5,141C 218.963,142.707 217.296,144.207 215.5,145.5C 218.465,138.672 223.132,137.006 229.5,140.5 Z"/></g>
<g><path style="opacity:1" fill="#d59319" d="M 256.5,142.5 C 256.347,148.845 256.014,155.178 255.5,161.5C 253.167,161.5 250.833,161.5 248.5,161.5C 245.167,161.5 241.833,161.5 238.5,161.5C 238.5,157.833 238.5,154.167 238.5,150.5C 238.342,147.098 238.676,143.764 239.5,140.5C 245.524,137.503 251.19,138.17 256.5,142.5 Z"/></g>
<g><path style="opacity:1" fill="#fca504" d="M 243.5,140.5 C 247.741,139.75 251.074,141.083 253.5,144.5C 254.495,149.792 254.828,155.125 254.5,160.5C 249.833,160.5 245.167,160.5 240.5,160.5C 240.17,154.132 240.504,147.798 241.5,141.5C 242.944,142.981 243.611,142.648 243.5,140.5 Z"/></g>
<g><path style="opacity:0.104" fill="#4a2d03" d="M 239.5,140.5 C 238.676,143.764 238.342,147.098 238.5,150.5C 237.362,147.696 237.195,144.696 238,141.5C 238.383,140.944 238.883,140.611 239.5,140.5 Z"/></g>
<g><path style="opacity:0.024" fill="#515151" d="M 343.5,144.5 C 344.833,144.5 345.5,145.167 345.5,146.5C 344.5,146.167 343.833,145.5 343.5,144.5 Z"/></g>
<g><path style="opacity:0.627" fill="#838383" d="M 141.5,143.5 C 141.768,145.099 141.434,146.432 140.5,147.5C 138.922,145.625 139.255,144.292 141.5,143.5 Z"/></g>
<g><path style="opacity:0.278" fill="#5f5f5f" d="M 204.5,140.5 C 204.58,143.781 203.913,146.781 202.5,149.5C 202.215,146.171 202.882,143.171 204.5,140.5 Z"/></g>
<g><path style="opacity:1" fill="#efefef" d="M 135.5,148.5 C 135.5,151.167 135.5,153.833 135.5,156.5C 135.5,156.833 135.5,157.167 135.5,157.5C 134.883,157.611 134.383,157.944 134,158.5C 133.172,162.466 132.672,166.466 132.5,170.5C 131.566,171.568 131.232,172.901 131.5,174.5C 130.167,174.5 128.833,174.5 127.5,174.5C 125.801,174.66 124.134,174.494 122.5,174C 121.748,173.329 121.414,172.496 121.5,171.5C 121.337,166.453 121.671,161.453 122.5,156.5C 122.595,154.214 123.262,152.214 124.5,150.5C 125.833,149.833 126.833,148.833 127.5,147.5C 127.735,146.903 128.235,146.57 129,146.5C 131.346,146.99 133.513,147.657 135.5,148.5 Z"/></g>
<g><path style="opacity:0.306" fill="#636363" d="M 127.5,147.5 C 126.833,148.833 125.833,149.833 124.5,150.5C 124.5,148.5 125.5,147.5 127.5,147.5 Z"/></g>
<g><path style="opacity:0.035" fill="#542e13" d="M 215.5,145.5 C 214.85,147.435 214.517,149.435 214.5,151.5C 214.5,152.5 214.5,153.5 214.5,154.5C 213.9,153.1 212.9,152.1 211.5,151.5C 212.832,149.453 214.165,147.453 215.5,145.5 Z"/></g>
<g><path style="opacity:0.086" fill="#57380a" d="M 282.5,152.5 C 285.34,151.083 288.007,151.416 290.5,153.5C 287.833,153.167 285.167,152.833 282.5,152.5 Z"/></g>
<g><path style="opacity:0.192" fill="#606060" d="M 135.5,148.5 C 136.478,148.811 137.145,149.478 137.5,150.5C 136.95,152.657 136.283,154.657 135.5,156.5C 135.5,153.833 135.5,151.167 135.5,148.5 Z"/></g>
<g><path style="opacity:0.125" fill="#4f4f4f" d="M 164.5,148.5 C 164.435,151.428 163.768,154.095 162.5,156.5C 162.294,153.505 162.96,150.838 164.5,148.5 Z"/></g>
<g><path style="opacity:1" fill="#c29436" d="M 211.5,151.5 C 212.9,152.1 213.9,153.1 214.5,154.5C 214.179,156.048 213.179,156.715 211.5,156.5C 210.662,156.158 210.328,155.492 210.5,154.5C 211.11,153.609 211.443,152.609 211.5,151.5 Z"/></g>
<g><path style="opacity:0.4" fill="#623d0c" d="M 282.5,152.5 C 280.649,154.776 278.982,157.109 277.5,159.5C 277.241,155.763 278.907,153.43 282.5,152.5 Z"/></g>
<g><path style="opacity:0.502" fill="#65490d" d="M 291.5,153.5 C 292.906,153.973 293.573,154.973 293.5,156.5C 292.094,156.027 291.427,155.027 291.5,153.5 Z"/></g>
<g><path style="opacity:1" fill="#e8a31f" d="M 229.5,140.5 C 229.833,141.167 230.167,141.833 230.5,142.5C 223.461,139.62 218.794,141.786 216.5,149C 217.909,150.983 218.909,153.15 219.5,155.5C 221.959,156.643 224.293,156.31 226.5,154.5C 228.12,157.058 229.62,157.058 231,154.5C 231.667,155.167 232.333,155.833 233,156.5C 234.688,152.911 234.855,149.244 233.5,145.5C 234.167,146.5 234.833,147.5 235.5,148.5C 235.5,152.167 235.5,155.833 235.5,159.5C 230.167,159.067 224.834,158.567 219.5,158C 218.512,155.833 217.179,154 215.5,152.5C 215.5,151.833 215.167,151.5 214.5,151.5C 214.517,149.435 214.85,147.435 215.5,145.5C 217.296,144.207 218.963,142.707 220.5,141C 223.482,140.502 226.482,140.335 229.5,140.5 Z"/></g>
<g><path style="opacity:0.757" fill="#828282" d="M 166.5,154.5 C 166.829,157.228 166.163,159.562 164.5,161.5C 164.41,158.848 165.076,156.515 166.5,154.5 Z"/></g>
<g><path style="opacity:0.999" fill="#eeefee" d="M 203.5,158.5 C 207.963,158.423 212.296,159.09 216.5,160.5C 216.483,162.565 216.15,164.565 215.5,166.5C 215.5,166.833 215.5,167.167 215.5,167.5C 213.326,170.515 211.659,173.849 210.5,177.5C 209.662,177.842 209.328,178.508 209.5,179.5C 206.5,181.833 203.833,184.5 201.5,187.5C 200.414,187.38 199.747,186.713 199.5,185.5C 200.327,182.217 200.66,178.884 200.5,175.5C 201.115,169.757 202.115,164.091 203.5,158.5 Z"/></g>
<g><path style="opacity:0.296" fill="#744c12" d="M 235.5,148.5 C 236.461,150.265 236.795,152.265 236.5,154.5C 236.5,156.5 236.5,158.5 236.5,160.5C 235.167,160.5 233.833,160.5 232.5,160.5C 229.193,159.949 225.86,159.616 222.5,159.5C 220.708,159.634 219.042,159.301 217.5,158.5C 216.969,155.233 215.969,154.9 214.5,157.5C 213.209,157.737 212.209,157.404 211.5,156.5C 213.179,156.715 214.179,156.048 214.5,154.5C 215.338,154.158 215.672,153.492 215.5,152.5C 217.179,154 218.512,155.833 219.5,158C 224.834,158.567 230.167,159.067 235.5,159.5C 235.5,155.833 235.5,152.167 235.5,148.5 Z"/></g>
<g><path style="opacity:1" fill="#f3a20e" d="M 282.5,152.5 C 285.167,152.833 287.833,153.167 290.5,153.5C 290.833,153.5 291.167,153.5 291.5,153.5C 291.427,155.027 292.094,156.027 293.5,156.5C 293.427,158.027 294.094,159.027 295.5,159.5C 295.427,161.027 296.094,162.027 297.5,162.5C 297.427,164.027 298.094,165.027 299.5,165.5C 299.427,167.027 300.094,168.027 301.5,168.5C 301.5,169.167 301.5,169.833 301.5,170.5C 299.393,171.468 297.059,171.802 294.5,171.5C 292.684,169.589 291.517,167.256 291,164.5C 289.648,166.594 289.148,168.927 289.5,171.5C 288.833,173.5 288.167,175.5 287.5,177.5C 284.763,180.983 283.097,184.983 282.5,189.5C 282.5,189.833 282.5,190.167 282.5,190.5C 281.833,190.5 281.5,190.833 281.5,191.5C 281.5,191.833 281.5,192.167 281.5,192.5C 281.167,192.5 280.833,192.5 280.5,192.5C 278.516,193.156 276.516,193.822 274.5,194.5C 273.558,194.392 272.725,194.059 272,193.5C 271.501,189.848 271.335,186.182 271.5,182.5C 271.42,179.219 272.087,176.219 273.5,173.5C 275.277,170.495 276.277,167.162 276.5,163.5C 276.232,161.901 276.566,160.568 277.5,159.5C 278.982,157.109 280.649,154.776 282.5,152.5 Z"/></g>
<g><path style="opacity:0.318" fill="#6f470c" d="M 293.5,156.5 C 294.906,156.973 295.573,157.973 295.5,159.5C 294.094,159.027 293.427,158.027 293.5,156.5 Z"/></g>
<g><path style="opacity:0.8" fill="#7c7c7c" d="M 135.5,157.5 C 134.863,162.035 133.863,166.368 132.5,170.5C 132.672,166.466 133.172,162.466 134,158.5C 134.383,157.944 134.883,157.611 135.5,157.5 Z"/></g>
<g><path style="opacity:0.063" fill="#3e2604" d="M 236.5,154.5 C 237.468,156.607 237.802,158.941 237.5,161.5C 235.585,161.784 233.919,161.451 232.5,160.5C 233.833,160.5 235.167,160.5 236.5,160.5C 236.5,158.5 236.5,156.5 236.5,154.5 Z"/></g>
<g><path style="opacity:0.118" fill="#5a5a5a" d="M 346.5,154.5 C 346.59,157.152 345.924,159.485 344.5,161.5C 344.41,158.848 345.076,156.515 346.5,154.5 Z"/></g>
<g><path style="opacity:0.514" fill="#634510" d="M 256.5,142.5 C 257.489,147.975 257.822,153.642 257.5,159.5C 256.859,161.042 255.859,162.376 254.5,163.5C 252.343,162.95 250.343,162.283 248.5,161.5C 250.833,161.5 253.167,161.5 255.5,161.5C 256.014,155.178 256.347,148.845 256.5,142.5 Z"/></g>
<g><path style="opacity:0.659" fill="#724c0e" d="M 260.5,144.5 C 260.065,152.495 259.731,160.495 259.5,168.5C 257.882,165.829 257.215,162.829 257.5,159.5C 258.718,154.537 259.718,149.537 260.5,144.5 Z"/></g>
<g><path style="opacity:0.212" fill="#663d05" d="M 295.5,159.5 C 296.906,159.973 297.573,160.973 297.5,162.5C 296.094,162.027 295.427,161.027 295.5,159.5 Z"/></g>
<g><path style="opacity:0.198" fill="#4d4d4d" d="M 122.5,156.5 C 121.671,161.453 121.337,166.453 121.5,171.5C 120.353,167.354 120.186,163.02 121,158.5C 121.278,157.584 121.778,156.918 122.5,156.5 Z"/></g>
<g><path style="opacity:0.02" fill="#372d24" d="M 210.5,154.5 C 210.328,155.492 210.662,156.158 211.5,156.5C 212.209,157.404 213.209,157.737 214.5,157.5C 215.221,159.382 216.221,159.715 217.5,158.5C 219.042,159.301 220.708,159.634 222.5,159.5C 221.737,160.268 220.737,160.768 219.5,161C 222.365,161.183 225.031,161.683 227.5,162.5C 224.487,162.107 221.82,162.774 219.5,164.5C 218.974,166.23 217.974,167.564 216.5,168.5C 216.672,167.508 216.338,166.842 215.5,166.5C 216.15,164.565 216.483,162.565 216.5,160.5C 212.296,159.09 207.963,158.423 203.5,158.5C 203.354,157.301 204.354,156.634 206.5,156.5C 207.442,156.608 208.275,156.941 209,157.5C 209.232,156.263 209.732,155.263 210.5,154.5 Z"/></g>
<g><path style="opacity:0.086" fill="#412301" d="M 235.5,163.5 C 235.917,162.876 236.584,162.543 237.5,162.5C 242.324,163.06 246.99,163.727 251.5,164.5C 246.105,164.733 240.772,164.4 235.5,163.5 Z"/></g>
<g><path style="opacity:0.275" fill="#404040" d="M 310.5,157.5 C 309.286,162.784 308.286,168.118 307.5,173.5C 306.833,173.5 306.5,173.833 306.5,174.5C 305.957,174.44 305.624,174.107 305.5,173.5C 306.675,167.9 308.342,162.567 310.5,157.5 Z"/></g>
<g><path style="opacity:0.915" fill="#9f7020" d="M 228.5,162.5 C 230.903,162.448 233.236,162.781 235.5,163.5C 240.772,164.4 246.105,164.733 251.5,164.5C 251.5,164.833 251.5,165.167 251.5,165.5C 244.119,165.686 236.786,165.186 229.5,164C 228.944,163.617 228.611,163.117 228.5,162.5 Z"/></g>
<g><path style="opacity:0.306" fill="#624007" d="M 297.5,162.5 C 298.906,162.973 299.573,163.973 299.5,165.5C 298.094,165.027 297.427,164.027 297.5,162.5 Z"/></g>
<g><path style="opacity:0.137" fill="#616161" d="M 354.5,164.5 C 358.122,164.322 361.456,164.989 364.5,166.5C 360.922,166.451 357.589,165.785 354.5,164.5 Z"/></g>
<g><path style="opacity:0.557" fill="#64440c" d="M 251.5,165.5 C 251.5,165.167 251.5,164.833 251.5,164.5C 256.626,165.253 258.292,167.92 256.5,172.5C 256.787,168.785 255.12,166.452 251.5,165.5 Z"/></g>
<g><path style="opacity:1" fill="#f0f0f0" d="M 354.5,164.5 C 357.589,165.785 360.922,166.451 364.5,166.5C 367.367,166.369 369.033,167.703 369.5,170.5C 369.007,172.806 368.674,175.139 368.5,177.5C 367.342,186.288 365.676,194.955 363.5,203.5C 361.502,207.126 360.502,211.126 360.5,215.5C 359.553,222.901 358.22,230.234 356.5,237.5C 354.59,240.452 353.59,243.786 353.5,247.5C 349.833,247.5 346.167,247.5 342.5,247.5C 338.786,247.41 335.452,246.41 332.5,244.5C 332.5,241.833 332.5,239.167 332.5,236.5C 336.548,214.094 341.048,191.76 346,169.5C 346.996,164.26 349.83,162.593 354.5,164.5 Z"/></g>
<g><path style="opacity:0.592" fill="#654106" d="M 276.5,163.5 C 276.277,167.162 275.277,170.495 273.5,173.5C 273.723,169.838 274.723,166.505 276.5,163.5 Z"/></g>
<g><path style="opacity:0.298" fill="#624505" d="M 299.5,165.5 C 300.906,165.973 301.573,166.973 301.5,168.5C 300.094,168.027 299.427,167.027 299.5,165.5 Z"/></g>
<g><path style="opacity:0.443" fill="#67410b" d="M 273.5,165.5 C 273.072,168.785 272.072,171.785 270.5,174.5C 270.528,171.084 271.528,168.084 273.5,165.5 Z"/></g>
<g><path style="opacity:0.184" fill="#604508" d="M 294.5,171.5 C 293.833,171.5 293.167,171.5 292.5,171.5C 291.732,170.737 291.232,169.737 291,168.5C 290.517,169.448 290.351,170.448 290.5,171.5C 290.167,171.5 289.833,171.5 289.5,171.5C 289.148,168.927 289.648,166.594 291,164.5C 291.517,167.256 292.684,169.589 294.5,171.5 Z"/></g>
<g><path style="opacity:0.231" fill="#474747" d="M 343.5,167.5 C 343.938,167.435 344.272,167.601 344.5,168C 343.915,169.302 343.249,170.469 342.5,171.5C 342.232,169.901 342.566,168.568 343.5,167.5 Z"/></g>
<g><path style="opacity:0.129" fill="#3c2f25" d="M 215.5,167.5 C 215.5,168.167 215.833,168.5 216.5,168.5C 216.737,169.791 216.404,170.791 215.5,171.5C 215.107,173.284 214.441,174.95 213.5,176.5C 213.167,176.5 212.833,176.5 212.5,176.5C 211.833,176.5 211.5,176.833 211.5,177.5C 211.167,177.5 210.833,177.5 210.5,177.5C 211.659,173.849 213.326,170.515 215.5,167.5 Z"/></g>
<g><path style="opacity:1" fill="#b68734" d="M 301.5,170.5 C 302.043,170.56 302.376,170.893 302.5,171.5C 300.257,172.474 297.924,172.808 295.5,172.5C 295.167,172.5 294.833,172.5 294.5,172.5C 294.5,172.167 294.5,171.833 294.5,171.5C 297.059,171.802 299.393,171.468 301.5,170.5 Z"/></g>
<g><path style="opacity:0.075" fill="#3b3120" d="M 301.5,168.5 C 304.423,170.27 304.756,172.27 302.5,174.5C 305.106,176.579 305.106,178.579 302.5,180.5C 302.5,179.167 302.5,177.833 302.5,176.5C 299.327,176.599 296.327,175.932 293.5,174.5C 292.261,174.942 291.261,175.609 290.5,176.5C 290.065,179.157 289.065,181.491 287.5,183.5C 287.672,182.508 287.338,181.842 286.5,181.5C 286.5,180.833 286.833,180.5 287.5,180.5C 288.833,180.167 288.833,179.833 287.5,179.5C 287.5,178.833 287.5,178.167 287.5,177.5C 288.167,175.5 288.833,173.5 289.5,171.5C 289.833,171.5 290.167,171.5 290.5,171.5C 291.167,174.167 291.833,174.167 292.5,171.5C 293.167,171.5 293.833,171.5 294.5,171.5C 294.5,171.833 294.5,172.167 294.5,172.5C 293.817,173.644 294.151,173.644 295.5,172.5C 297.924,172.808 300.257,172.474 302.5,171.5C 302.376,170.893 302.043,170.56 301.5,170.5C 301.5,169.833 301.5,169.167 301.5,168.5 Z"/></g>
<g><path style="opacity:0.29" fill="#626262" d="M 132.5,170.5 C 132.5,172.167 132.5,173.833 132.5,175.5C 130.585,175.784 128.919,175.451 127.5,174.5C 128.833,174.5 130.167,174.5 131.5,174.5C 131.232,172.901 131.566,171.568 132.5,170.5 Z"/></g>
<g><path style="opacity:0.122" fill="#5a3505" d="M 256.5,172.5 C 256.573,174.027 255.906,175.027 254.5,175.5C 254.427,173.973 255.094,172.973 256.5,172.5 Z"/></g>
<g><path style="opacity:0.161" fill="#535353" d="M 342.5,171.5 C 342.678,175.122 342.011,178.456 340.5,181.5C 340.549,177.922 341.215,174.589 342.5,171.5 Z"/></g>
<g><path style="opacity:1" fill="#f3f4f3" d="M 302.5,180.5 C 301.549,181.919 301.216,183.585 301.5,185.5C 301.247,189.04 300.581,192.373 299.5,195.5C 297.551,199.479 296.551,203.813 296.5,208.5C 295.596,209.209 295.263,210.209 295.5,211.5C 289.119,210.779 282.786,209.779 276.5,208.5C 273.946,207.612 271.279,207.279 268.5,207.5C 267.432,206.566 266.099,206.232 264.5,206.5C 264.325,204.379 264.659,202.379 265.5,200.5C 266.627,199.878 267.627,199.045 268.5,198C 272.167,197.667 275.833,197.333 279.5,197C 280.056,196.617 280.389,196.117 280.5,195.5C 280.5,194.833 280.833,194.5 281.5,194.5C 282.974,193.564 283.974,192.23 284.5,190.5C 284.5,190.167 284.5,189.833 284.5,189.5C 286.969,188.393 287.969,186.393 287.5,183.5C 289.065,181.491 290.065,179.157 290.5,176.5C 291.261,175.609 292.261,174.942 293.5,174.5C 296.327,175.932 299.327,176.599 302.5,176.5C 302.5,177.833 302.5,179.167 302.5,180.5 Z"/></g>
<g><path style="opacity:0.4" fill="#666666" d="M 159.5,171.5 C 159.58,174.781 158.913,177.781 157.5,180.5C 157.068,177.123 157.735,174.123 159.5,171.5 Z"/></g>
<g><path style="opacity:0.133" fill="#515151" d="M 369.5,170.5 C 370.645,172.953 370.312,175.287 368.5,177.5C 368.674,175.139 369.007,172.806 369.5,170.5 Z"/></g>
<g><path style="opacity:0.1" fill="#4f4f4f" d="M 162.5,173.5 C 162.59,176.152 161.924,178.485 160.5,180.5C 160.171,177.772 160.837,175.438 162.5,173.5 Z"/></g>
<g><path style="opacity:0.588" fill="#737373" d="M 134.5,176.5 C 134.768,178.099 134.434,179.432 133.5,180.5C 131.922,178.625 132.255,177.292 134.5,176.5 Z"/></g>
<g><path style="opacity:0.541" fill="#8a8a8a" d="M 307.5,173.5 C 307.59,176.152 306.924,178.485 305.5,180.5C 305.517,178.435 305.85,176.435 306.5,174.5C 306.5,173.833 306.833,173.5 307.5,173.5 Z"/></g>
<g><path style="opacity:0.196" fill="#593a0b" d="M 249.5,179.5 C 249.5,179.833 249.5,180.167 249.5,180.5C 247.703,181.73 245.703,182.396 243.5,182.5C 245.181,180.992 247.181,179.992 249.5,179.5 Z"/></g>
<g><path style="opacity:1" fill="#f7a30a" d="M 273.5,164.5 C 273.5,164.833 273.5,165.167 273.5,165.5C 271.528,168.084 270.528,171.084 270.5,174.5C 269.076,176.515 268.41,178.848 268.5,181.5C 267.954,185.829 266.954,190.163 265.5,194.5C 264.449,195.885 263.116,196.885 261.5,197.5C 259.944,196.453 258.277,195.786 256.5,195.5C 256.5,192.833 256.5,190.167 256.5,187.5C 256.652,183.076 257.319,178.743 258.5,174.5C 258.325,172.379 258.659,170.379 259.5,168.5C 259.731,160.495 260.065,152.495 260.5,144.5C 266.18,140.837 271.346,141.837 276,147.5C 275.717,153.205 274.884,158.871 273.5,164.5 Z"/></g>
<g><path style="opacity:0.114" fill="#533408" d="M 212.5,176.5 C 212.833,176.5 213.167,176.5 213.5,176.5C 212.25,181.017 209.583,184.35 205.5,186.5C 205.5,186.167 205.5,185.833 205.5,185.5C 205.833,184.5 206.5,183.833 207.5,183.5C 208.167,183.5 208.5,183.167 208.5,182.5C 209.167,182.5 209.5,182.167 209.5,181.5C 209.5,181.167 209.5,180.833 209.5,180.5C 210.833,180.167 210.833,179.833 209.5,179.5C 209.328,178.508 209.662,177.842 210.5,177.5C 210.833,177.5 211.167,177.5 211.5,177.5C 212.167,177.5 212.5,177.167 212.5,176.5 Z"/></g>
<g><path style="opacity:0.098" fill="#2b200b" d="M 249.5,180.5 C 251.167,180.5 252.833,180.5 254.5,180.5C 254.768,182.099 254.434,183.432 253.5,184.5C 253.719,183.325 253.386,182.325 252.5,181.5C 251.583,182.127 250.583,182.461 249.5,182.5C 249.5,181.833 249.5,181.167 249.5,180.5 Z"/></g>
<g><path style="opacity:0.392" fill="#585759" d="M 302.5,180.5 C 303.261,182.259 302.928,183.926 301.5,185.5C 301.216,183.585 301.549,181.919 302.5,180.5 Z"/></g>
<g><path style="opacity:0.039" fill="#362d2a" d="M 209.5,179.5 C 209.5,179.833 209.5,180.167 209.5,180.5C 209.5,180.833 209.5,181.167 209.5,181.5C 208.833,181.5 208.5,181.833 208.5,182.5C 207.833,182.5 207.5,182.833 207.5,183.5C 206.5,183.833 205.833,184.5 205.5,185.5C 204.167,185.833 204.167,186.167 205.5,186.5C 205.167,187.5 204.5,188.167 203.5,188.5C 203.158,187.662 202.492,187.328 201.5,187.5C 203.833,184.5 206.5,181.833 209.5,179.5 Z"/></g>
<g><path style="opacity:1" fill="#ae7b20" d="M 253.5,184.5 C 253.81,187.713 253.477,190.713 252.5,193.5C 252.167,193.5 251.833,193.5 251.5,193.5C 251.5,190.5 251.5,187.5 251.5,184.5C 247.959,185.759 244.292,186.759 240.5,187.5C 242.072,186.313 243.739,185.313 245.5,184.5C 246.514,183.326 247.847,182.66 249.5,182.5C 250.583,182.461 251.583,182.127 252.5,181.5C 253.386,182.325 253.719,183.325 253.5,184.5 Z"/></g>
<g><path style="opacity:0.706" fill="#838383" d="M 133.5,181.5 C 133.768,183.099 133.434,184.432 132.5,185.5C 130.922,183.625 131.255,182.292 133.5,181.5 Z"/></g>
<g><path style="opacity:0.116" fill="#462e07" d="M 270.5,174.5 C 269.717,178.146 269.55,181.812 270,185.5C 270.232,184.263 270.732,183.263 271.5,182.5C 271.335,186.182 271.501,189.848 272,193.5C 272.725,194.059 273.558,194.392 274.5,194.5C 276.516,193.822 278.516,193.156 280.5,192.5C 276.066,196.758 272.066,196.425 268.5,191.5C 268.5,188.167 268.5,184.833 268.5,181.5C 268.41,178.848 269.076,176.515 270.5,174.5 Z"/></g>
<g><path style="opacity:0.447" fill="#6e440b" d="M 287.5,177.5 C 287.5,178.167 287.5,178.833 287.5,179.5C 287.5,179.833 287.5,180.167 287.5,180.5C 286.833,180.5 286.5,180.833 286.5,181.5C 285.766,182.708 285.433,184.041 285.5,185.5C 284.662,185.842 284.328,186.508 284.5,187.5C 283.833,188.167 283.167,188.833 282.5,189.5C 283.097,184.983 284.763,180.983 287.5,177.5 Z"/></g>
<g><path style="opacity:0.8" fill="#b7b8ba" d="M 200.5,175.5 C 200.66,178.884 200.327,182.217 199.5,185.5C 199.747,186.713 200.414,187.38 201.5,187.5C 201.5,187.833 201.5,188.167 201.5,188.5C 201.167,188.5 200.833,188.5 200.5,188.5C 199.883,188.611 199.383,188.944 199,189.5C 198.506,187.866 198.34,186.199 198.5,184.5C 198.676,181.273 199.343,178.273 200.5,175.5 Z"/></g>
<g><path style="opacity:0.392" fill="#49340e" d="M 228.5,182.5 C 232.768,183.373 237.102,183.706 241.5,183.5C 241.5,183.833 241.5,184.167 241.5,184.5C 238.482,184.335 235.482,184.502 232.5,185C 233.757,187.076 233.424,188.91 231.5,190.5C 228.833,190.833 228.833,191.167 231.5,191.5C 230.791,192.404 229.791,192.737 228.5,192.5C 228.5,191.833 228.5,191.167 228.5,190.5C 228.5,190.167 228.5,189.833 228.5,189.5C 229.973,188.928 231.307,188.095 232.5,187C 230.416,186.303 228.749,185.136 227.5,183.5C 228.167,183.5 228.5,183.167 228.5,182.5 Z"/></g>
<g><path style="opacity:0.325" fill="#69430b" d="M 258.5,174.5 C 257.319,178.743 256.652,183.076 256.5,187.5C 256.167,187.5 255.833,187.5 255.5,187.5C 255.335,184.482 255.502,181.482 256,178.5C 256.2,176.68 257.034,175.347 258.5,174.5 Z"/></g>
<g><path style="opacity:0.812" fill="#7e8082" d="M 287.5,183.5 C 287.969,186.393 286.969,188.393 284.5,189.5C 284.5,188.833 284.5,188.167 284.5,187.5C 285.338,187.158 285.672,186.492 285.5,185.5C 286.167,184.833 286.833,184.167 287.5,183.5 Z"/></g>
<g><path style="opacity:0.173" fill="#332310" d="M 237.5,189.5 C 237.178,191.722 237.845,193.556 239.5,195C 238.473,195.513 237.473,196.013 236.5,196.5C 236.5,194.5 236.5,192.5 236.5,190.5C 235.5,190.5 234.5,190.5 233.5,190.5C 234.403,188.38 235.737,188.046 237.5,189.5 Z"/></g>
<g><path style="opacity:0.157" fill="#845506" d="M 228.5,189.5 C 228.5,189.833 228.5,190.167 228.5,190.5C 227.292,191.234 225.959,191.567 224.5,191.5C 222.833,191.5 221.167,191.5 219.5,191.5C 217.776,191.461 217.443,191.794 218.5,192.5C 218.5,192.833 218.5,193.167 218.5,193.5C 217.005,193.585 216.005,192.919 215.5,191.5C 219.816,190.636 224.149,189.969 228.5,189.5 Z"/></g>
<g><path style="opacity:0.008" fill="#33302c" d="M 281.5,191.5 C 281.5,190.833 281.833,190.5 282.5,190.5C 283.167,190.5 283.833,190.5 284.5,190.5C 283.974,192.23 282.974,193.564 281.5,194.5C 281.5,193.833 281.5,193.167 281.5,192.5C 282.833,192.167 282.833,191.833 281.5,191.5 Z"/></g>
<g><path style="opacity:0.153" fill="#505151" d="M 196.5,178.5 C 195.865,181.493 195.699,184.493 196,187.5C 196.333,187.833 196.667,188.167 197,188.5C 197.21,186.942 197.71,185.609 198.5,184.5C 198.34,186.199 198.506,187.866 199,189.5C 199.383,188.944 199.883,188.611 200.5,188.5C 200.5,189.167 200.5,189.833 200.5,190.5C 199.662,190.842 199.328,191.508 199.5,192.5C 198.127,192.657 196.793,192.49 195.5,192C 196.28,190.927 196.113,189.76 195,188.5C 194.768,189.737 194.268,190.737 193.5,191.5C 193.627,186.849 194.627,182.515 196.5,178.5 Z"/></g>
<g><path style="opacity:1" fill="#f7a50f" d="M 251.5,193.5 C 251.389,194.117 251.056,194.617 250.5,195C 244.725,196.657 241.058,194.657 239.5,189C 239.57,188.235 239.903,187.735 240.5,187.5C 244.292,186.759 247.959,185.759 251.5,184.5C 251.5,187.5 251.5,190.5 251.5,193.5 Z"/></g>
<g><path style="opacity:0.102" fill="#444444" d="M 156.5,185.5 C 156.451,189.078 155.785,192.411 154.5,195.5C 154.322,191.878 154.989,188.544 156.5,185.5 Z"/></g>
<g><path style="opacity:0.539" fill="#6b4a11" d="M 201.5,188.5 C 202.167,188.5 202.833,188.5 203.5,188.5C 202.541,190.545 201.875,192.711 201.5,195C 202.322,197.472 202.989,199.972 203.5,202.5C 200.968,199.764 199.635,196.43 199.5,192.5C 200.338,192.158 200.672,191.492 200.5,190.5C 201.338,190.158 201.672,189.492 201.5,188.5 Z"/></g>
<g><path style="opacity:0.42" fill="#6e4e11" d="M 231.5,191.5 C 231.5,191.167 231.5,190.833 231.5,190.5C 232.167,190.5 232.833,190.5 233.5,190.5C 234.5,190.5 235.5,190.5 236.5,190.5C 236.5,192.5 236.5,194.5 236.5,196.5C 236.5,197.5 236.5,198.5 236.5,199.5C 235.833,199.5 235.5,199.833 235.5,200.5C 235.5,201.167 235.833,201.5 236.5,201.5C 235.528,202.751 234.861,202.418 234.5,200.5C 235.302,197.551 235.636,194.551 235.5,191.5C 234.167,191.5 232.833,191.5 231.5,191.5 Z"/></g>
<g><path style="opacity:0.149" fill="#5a5a5a" d="M 338.5,190.5 C 338.678,194.122 338.011,197.456 336.5,200.5C 336.549,196.922 337.215,193.589 338.5,190.5 Z"/></g>
<g><path style="opacity:0.05" fill="#402d0c" d="M 241.5,184.5 C 242.833,184.5 244.167,184.5 245.5,184.5C 243.739,185.313 242.072,186.313 240.5,187.5C 239.903,187.735 239.57,188.235 239.5,189C 241.058,194.657 244.725,196.657 250.5,195C 251.056,194.617 251.389,194.117 251.5,193.5C 251.833,193.5 252.167,193.5 252.5,193.5C 251.027,195.593 251.527,197.26 254,198.5C 254.183,195.635 254.683,192.969 255.5,190.5C 255.279,193.279 255.612,195.946 256.5,198.5C 255.167,198.833 255.167,199.167 256.5,199.5C 256.833,200.833 257.167,200.833 257.5,199.5C 259.903,199.552 262.236,199.219 264.5,198.5C 264.167,199.167 263.833,199.833 263.5,200.5C 262.448,200.351 261.448,200.517 260.5,201C 261.109,202.948 261.776,204.782 262.5,206.5C 263.338,206.842 263.672,207.508 263.5,208.5C 262.833,209.167 262.167,209.833 261.5,210.5C 261.649,209.448 261.483,208.448 261,207.5C 260.392,209.154 259.892,210.821 259.5,212.5C 258.833,213.167 258.167,213.833 257.5,214.5C 258.481,211.193 259.481,207.86 260.5,204.5C 260.167,203.833 259.833,203.167 259.5,202.5C 257.667,201.948 256,201.115 254.5,200C 249.647,199.971 244.98,199.138 240.5,197.5C 239.16,198.867 237.827,200.2 236.5,201.5C 235.833,201.5 235.5,201.167 235.5,200.5C 236.167,200.5 236.5,200.167 236.5,199.5C 237.525,197.485 239.192,196.152 241.5,195.5C 239.684,193.71 238.351,191.71 237.5,189.5C 238.111,187.225 239.445,185.559 241.5,184.5 Z M 243.5,197.5 C 244.251,196.427 245.251,196.26 246.5,197C 245.648,198.728 244.648,198.895 243.5,197.5 Z M 248.5,196.5 C 249.289,196.783 249.956,197.283 250.5,198C 249.184,198.528 248.517,198.028 248.5,196.5 Z"/></g>
<g><path style="opacity:1" fill="#c68f22" d="M 268.5,181.5 C 268.5,184.833 268.5,188.167 268.5,191.5C 268.5,191.833 268.5,192.167 268.5,192.5C 267.18,194.463 265.846,196.463 264.5,198.5C 262.236,199.219 259.903,199.552 257.5,199.5C 257.167,199.5 256.833,199.5 256.5,199.5C 256.5,199.167 256.5,198.833 256.5,198.5C 255.612,195.946 255.279,193.279 255.5,190.5C 255.5,189.5 255.5,188.5 255.5,187.5C 255.833,187.5 256.167,187.5 256.5,187.5C 256.5,190.167 256.5,192.833 256.5,195.5C 258.277,195.786 259.944,196.453 261.5,197.5C 263.116,196.885 264.449,195.885 265.5,194.5C 266.954,190.163 267.954,185.829 268.5,181.5 Z"/></g>
<g><path style="opacity:0.999" fill="#e4e4e4" d="M 371.5,196.5 C 373.812,197.341 376.145,198.341 378.5,199.5C 379.782,202.731 379.782,206.064 378.5,209.5C 377.076,211.515 376.41,213.848 376.5,216.5C 376.445,219.614 375.112,221.948 372.5,223.5C 369.518,223.037 366.518,222.704 363.5,222.5C 362.861,221.903 362.528,221.07 362.5,220C 364.239,212.544 365.739,205.044 367,197.5C 368.27,195.422 369.77,195.088 371.5,196.5 Z"/></g>
<g><path style="opacity:0.231" fill="#6d6d6d" d="M 371.5,196.5 C 373.199,196.34 374.866,196.506 376.5,197C 377.756,197.417 378.423,198.25 378.5,199.5C 376.145,198.341 373.812,197.341 371.5,196.5 Z"/></g>
<g><path style="opacity:0.051" fill="#413121" d="M 268.5,192.5 C 268.67,193.822 268.337,194.989 267.5,196C 271.887,196.706 276.22,196.54 280.5,195.5C 280.389,196.117 280.056,196.617 279.5,197C 275.833,197.333 272.167,197.667 268.5,198C 267.627,199.045 266.627,199.878 265.5,200.5C 265.672,199.508 265.338,198.842 264.5,198.5C 265.846,196.463 267.18,194.463 268.5,192.5 Z"/></g>
<g><path style="opacity:0.551" fill="#626262" d="M 130.5,194.5 C 130.264,197.609 130.597,200.609 131.5,203.5C 129.707,203.116 128.707,201.95 128.5,200C 128.954,197.97 129.62,196.137 130.5,194.5 Z"/></g>
<g><path style="opacity:0.459" fill="#454545" d="M 133.5,204.5 C 136.428,204.565 139.095,205.232 141.5,206.5C 138.505,206.706 135.838,206.04 133.5,204.5 Z"/></g>
<g><path style="opacity:0.114" fill="#636564" d="M 192.5,197.5 C 191.769,203.748 190.435,209.748 188.5,215.5C 188.914,209.187 190.248,203.187 192.5,197.5 Z"/></g>
<g><path style="opacity:0.251" fill="#66450e" d="M 203.5,202.5 C 204.906,202.973 205.573,203.973 205.5,205.5C 204.094,205.027 203.427,204.027 203.5,202.5 Z"/></g>
<g><path style="opacity:0.412" fill="#707070" d="M 299.5,195.5 C 299.023,200.071 298.023,204.404 296.5,208.5C 296.551,203.813 297.551,199.479 299.5,195.5 Z"/></g>
<g><path style="opacity:0.051" fill="#392c2f" d="M 263.5,200.5 C 264.167,200.5 264.833,200.5 265.5,200.5C 264.659,202.379 264.325,204.379 264.5,206.5C 266.099,206.232 267.432,206.566 268.5,207.5C 267.791,208.404 266.791,208.737 265.5,208.5C 264.833,208.5 264.167,208.5 263.5,208.5C 263.672,207.508 263.338,206.842 262.5,206.5C 262.517,204.435 262.85,202.435 263.5,200.5 Z"/></g>
<g><path style="opacity:0.329" fill="#4e4e4e" d="M 336.5,203.5 C 336.598,205.553 335.931,207.22 334.5,208.5C 334.402,206.447 335.069,204.78 336.5,203.5 Z"/></g>
<g><path style="opacity:0.643" fill="#808080" d="M 363.5,203.5 C 362.992,207.736 361.992,211.736 360.5,215.5C 360.502,211.126 361.502,207.126 363.5,203.5 Z"/></g>
<g><path style="opacity:0.043" fill="#413010" d="M 268.5,207.5 C 271.279,207.279 273.946,207.612 276.5,208.5C 276.5,208.833 276.5,209.167 276.5,209.5C 276.842,210.338 277.508,210.672 278.5,210.5C 281.218,211.043 283.885,211.709 286.5,212.5C 287.492,212.672 288.158,212.338 288.5,211.5C 288.833,211.5 289.167,211.5 289.5,211.5C 289.5,212.167 289.833,212.5 290.5,212.5C 291.568,213.434 292.901,213.768 294.5,213.5C 295.601,215.988 294.934,217.988 292.5,219.5C 293.038,217.883 293.371,216.216 293.5,214.5C 287.448,213.821 281.448,212.821 275.5,211.5C 274.5,210.833 273.5,210.167 272.5,209.5C 273.183,208.356 272.849,208.356 271.5,209.5C 270.5,209.5 269.5,209.5 268.5,209.5C 267.209,209.737 266.209,209.404 265.5,208.5C 266.791,208.737 267.791,208.404 268.5,207.5 Z"/></g>
<g><path style="opacity:0.369" fill="#7d5a11" d="M 268.5,209.5 C 269.5,209.5 270.5,209.5 271.5,209.5C 271.833,209.5 272.167,209.5 272.5,209.5C 273.5,210.167 274.5,210.833 275.5,211.5C 272.848,211.59 270.515,210.924 268.5,209.5 Z"/></g>
<g><path style="opacity:0.035" fill="#383736" d="M 276.5,209.5 C 276.5,209.167 276.5,208.833 276.5,208.5C 282.786,209.779 289.119,210.779 295.5,211.5C 295.263,210.209 295.596,209.209 296.5,208.5C 297.897,210.822 297.23,212.489 294.5,213.5C 293.432,212.566 292.099,212.232 290.5,212.5C 289.833,212.5 289.5,212.167 289.5,211.5C 289.167,211.5 288.833,211.5 288.5,211.5C 287.508,211.328 286.842,211.662 286.5,212.5C 283.885,211.709 281.218,211.043 278.5,210.5C 278.158,209.662 277.492,209.328 276.5,209.5 Z"/></g>
<g><path style="opacity:1" fill="#f8a307" d="M 227.5,162.5 C 227.833,162.5 228.167,162.5 228.5,162.5C 228.611,163.117 228.944,163.617 229.5,164C 236.786,165.186 244.119,165.686 251.5,165.5C 255.12,166.452 256.787,168.785 256.5,172.5C 255.094,172.973 254.427,173.973 254.5,175.5C 253.415,177.587 251.749,178.92 249.5,179.5C 247.181,179.992 245.181,180.992 243.5,182.5C 243.158,183.338 242.492,183.672 241.5,183.5C 237.102,183.706 232.768,183.373 228.5,182.5C 226.897,181.404 225.397,180.07 224,178.5C 223.333,179.167 223.333,179.833 224,180.5C 224.759,182.063 225.926,183.063 227.5,183.5C 228.749,185.136 230.416,186.303 232.5,187C 231.307,188.095 229.973,188.928 228.5,189.5C 224.149,189.969 219.816,190.636 215.5,191.5C 216.005,192.919 217.005,193.585 218.5,193.5C 222.042,193.813 225.375,193.479 228.5,192.5C 229.791,192.737 230.791,192.404 231.5,191.5C 232.833,191.5 234.167,191.5 235.5,191.5C 235.636,194.551 235.302,197.551 234.5,200.5C 234.861,202.418 235.528,202.751 236.5,201.5C 237.827,200.2 239.16,198.867 240.5,197.5C 244.98,199.138 249.647,199.971 254.5,200C 256,201.115 257.667,201.948 259.5,202.5C 259.833,203.167 260.167,203.833 260.5,204.5C 259.481,207.86 258.481,211.193 257.5,214.5C 256.094,214.973 255.427,215.973 255.5,217.5C 254.094,217.973 253.427,218.973 253.5,220.5C 253.5,220.833 253.5,221.167 253.5,221.5C 252.508,221.328 251.842,221.662 251.5,222.5C 251.5,222.833 251.5,223.167 251.5,223.5C 250.833,223.5 250.5,223.833 250.5,224.5C 249.185,225.476 247.852,226.476 246.5,227.5C 251.464,226.577 255.131,223.577 257.5,218.5C 258.906,218.027 259.573,217.027 259.5,215.5C 259.5,215.167 259.5,214.833 259.5,214.5C 260.906,214.027 261.573,213.027 261.5,211.5C 261.5,211.167 261.5,210.833 261.5,210.5C 262.167,209.833 262.833,209.167 263.5,208.5C 264.167,208.5 264.833,208.5 265.5,208.5C 266.209,209.404 267.209,209.737 268.5,209.5C 270.515,210.924 272.848,211.59 275.5,211.5C 281.448,212.821 287.448,213.821 293.5,214.5C 293.371,216.216 293.038,217.883 292.5,219.5C 291.21,220.058 290.377,221.058 290,222.5C 289.667,222.167 289.333,221.833 289,221.5C 288.129,225.009 286.963,228.342 285.5,231.5C 284.198,233.822 282.198,235.155 279.5,235.5C 277.62,235.229 276.287,235.896 275.5,237.5C 274.167,237.5 272.833,237.5 271.5,237.5C 267.418,237.344 263.418,237.844 259.5,239C 262.312,240.549 265.312,241.382 268.5,241.5C 270.591,241.682 272.591,241.348 274.5,240.5C 274.833,241 275.167,241.5 275.5,242C 274.128,245.026 273.462,248.193 273.5,251.5C 273.5,251.833 273.5,252.167 273.5,252.5C 272.883,252.611 272.383,252.944 272,253.5C 271.099,259.835 270.266,266.168 269.5,272.5C 269.5,272.833 269.5,273.167 269.5,273.5C 267.882,276.171 267.215,279.171 267.5,282.5C 267.784,284.415 267.451,286.081 266.5,287.5C 264.496,292.525 263.496,297.858 263.5,303.5C 261,310.152 259.666,317.152 259.5,324.5C 259.341,328.291 258.675,331.958 257.5,335.5C 255.735,338.123 255.068,341.123 255.5,344.5C 255.5,344.833 255.5,345.167 255.5,345.5C 254.25,345.577 253.417,346.244 253,347.5C 251.583,354.472 250.083,361.472 248.5,368.5C 246.833,368.5 245.167,368.5 243.5,368.5C 241.522,367.683 240.522,366.183 240.5,364C 241.31,360.208 241.644,356.375 241.5,352.5C 241.5,352.167 241.5,351.833 241.5,351.5C 242.117,351.389 242.617,351.056 243,350.5C 243.497,347.854 243.664,345.187 243.5,342.5C 243.5,341.833 243.5,341.167 243.5,340.5C 245.74,336.523 246.573,332.189 246,327.5C 243.239,324.467 240.073,323.8 236.5,325.5C 234.336,330.624 232.67,335.958 231.5,341.5C 229.443,345.802 228.443,350.469 228.5,355.5C 228.483,357.565 228.15,359.565 227.5,361.5C 224.223,368.362 222.556,375.695 222.5,383.5C 222.46,386.988 221.793,390.321 220.5,393.5C 217.785,395.123 214.785,395.79 211.5,395.5C 209.391,393.878 208.391,391.712 208.5,389C 209.031,386.183 209.364,383.35 209.5,380.5C 209.5,380.167 209.5,379.833 209.5,379.5C 212.381,373.964 213.714,367.964 213.5,361.5C 213.54,358.012 214.207,354.679 215.5,351.5C 216.117,351.389 216.617,351.056 217,350.5C 217.497,347.854 217.664,345.187 217.5,342.5C 217.5,342.167 217.5,341.833 217.5,341.5C 218.924,339.485 219.59,337.152 219.5,334.5C 219.205,332.265 219.539,330.265 220.5,328.5C 222.105,326.52 223.272,324.187 224,321.5C 225.785,316.314 226.618,310.98 226.5,305.5C 226.963,302.518 227.296,299.518 227.5,296.5C 227.5,295.833 227.5,295.167 227.5,294.5C 228.649,294.209 229.316,293.376 229.5,292C 231.113,287.264 231.613,282.431 231,277.5C 230.617,276.944 230.117,276.611 229.5,276.5C 229.027,275.094 228.027,274.427 226.5,274.5C 224.183,273.058 222.016,273.392 220,275.5C 218.464,279.346 217.631,283.346 217.5,287.5C 215.754,291.889 214.754,296.556 214.5,301.5C 214.768,303.099 214.434,304.432 213.5,305.5C 211.627,309.515 210.627,313.849 210.5,318.5C 210.5,318.833 210.5,319.167 210.5,319.5C 207.772,321.288 204.772,321.788 201.5,321C 201,320.5 200.5,320 200,319.5C 199.501,315.848 199.335,312.182 199.5,308.5C 199.659,304.709 200.325,301.042 201.5,297.5C 203.369,295.365 204.036,292.698 203.5,289.5C 203.5,288.833 203.5,288.167 203.5,287.5C 205.04,285.162 205.706,282.495 205.5,279.5C 206.117,279.389 206.617,279.056 207,278.5C 207.737,274.13 208.57,269.796 209.5,265.5C 209.5,263.833 209.5,262.167 209.5,260.5C 209.659,256.709 210.325,253.042 211.5,249.5C 213.369,247.365 214.036,244.698 213.5,241.5C 215.243,238.505 216.243,235.171 216.5,231.5C 220.833,231.5 225.167,231.5 229.5,231.5C 237.185,233.147 237.852,232.481 231.5,229.5C 228.201,227.517 224.534,226.517 220.5,226.5C 216.874,222.917 214.54,218.584 213.5,213.5C 212.378,212.37 211.044,211.703 209.5,211.5C 207.748,209.754 206.415,207.754 205.5,205.5C 205.573,203.973 204.906,202.973 203.5,202.5C 202.989,199.972 202.322,197.472 201.5,195C 201.875,192.711 202.541,190.545 203.5,188.5C 204.5,188.167 205.167,187.5 205.5,186.5C 209.583,184.35 212.25,181.017 213.5,176.5C 214.441,174.95 215.107,173.284 215.5,171.5C 216.404,170.791 216.737,169.791 216.5,168.5C 217.974,167.564 218.974,166.23 219.5,164.5C 221.82,162.774 224.487,162.107 227.5,162.5 Z M 259.5,212.5 C 259.5,213.167 259.5,213.833 259.5,214.5C 259.5,214.833 259.5,215.167 259.5,215.5C 258.833,215.833 258.167,216.167 257.5,216.5C 257.5,215.833 257.5,215.167 257.5,214.5C 258.167,213.833 258.833,213.167 259.5,212.5 Z M 257.5,216.5 C 257.5,217.167 257.5,217.833 257.5,218.5C 256.833,218.833 256.167,219.167 255.5,219.5C 255.5,218.833 255.5,218.167 255.5,217.5C 256.167,217.167 256.833,216.833 257.5,216.5 Z"/></g>
<g><path style="opacity:0.11" fill="#372705" d="M 219.5,191.5 C 221.167,191.5 222.833,191.5 224.5,191.5C 225.568,192.434 226.901,192.768 228.5,192.5C 225.375,193.479 222.042,193.813 218.5,193.5C 218.5,193.167 218.5,192.833 218.5,192.5C 219.167,192.5 219.5,192.167 219.5,191.5 Z"/></g>
<g><path style="opacity:0.145" fill="#693804" d="M 228.5,182.5 C 227.833,182.5 227.5,182.833 227.5,183.5C 225.926,183.063 224.759,182.063 224,180.5C 223.333,179.833 223.333,179.167 224,178.5C 225.397,180.07 226.897,181.404 228.5,182.5 Z"/></g>
<g><path style="opacity:0.439" fill="#676c68" d="M 300.5,205.5 C 300.435,208.428 299.768,211.095 298.5,213.5C 298.294,210.505 298.96,207.838 300.5,205.5 Z"/></g>
<g><path style="opacity:0.157" fill="#4e2c05" d="M 261.5,211.5 C 261.573,213.027 260.906,214.027 259.5,214.5C 259.5,213.833 259.5,213.167 259.5,212.5C 260.167,212.167 260.833,211.833 261.5,211.5 Z"/></g>
<g><path style="opacity:0.553" fill="#777777" d="M 378.5,209.5 C 378.59,212.152 377.924,214.485 376.5,216.5C 376.41,213.848 377.076,211.515 378.5,209.5 Z"/></g>
<g><path style="opacity:0.114" fill="#513803" d="M 257.5,214.5 C 257.5,215.167 257.5,215.833 257.5,216.5C 256.833,216.833 256.167,217.167 255.5,217.5C 255.427,215.973 256.094,214.973 257.5,214.5 Z"/></g>
<g><path style="opacity:0.22" fill="#5f5f5f" d="M 334.5,211.5 C 334.435,214.428 333.768,217.095 332.5,219.5C 332.111,216.447 332.777,213.78 334.5,211.5 Z"/></g>
<g><path style="opacity:0.373" fill="#66450b" d="M 259.5,215.5 C 259.573,217.027 258.906,218.027 257.5,218.5C 257.5,217.833 257.5,217.167 257.5,216.5C 258.167,216.167 258.833,215.833 259.5,215.5 Z"/></g>
<g><path style="opacity:0.071" fill="#53330a" d="M 255.5,217.5 C 255.5,218.167 255.5,218.833 255.5,219.5C 254.833,219.5 254.5,219.833 254.5,220.5C 254.167,220.5 253.833,220.5 253.5,220.5C 253.427,218.973 254.094,217.973 255.5,217.5 Z"/></g>
<g><path style="opacity:0.012" fill="#313131" d="M 153.5,215.5 C 153.5,218.5 153.5,221.5 153.5,224.5C 152.609,223.739 151.942,222.739 151.5,221.5C 152.05,219.343 152.717,217.343 153.5,215.5 Z"/></g>
<g><path style="opacity:0.286" fill="#3a4936" d="M 297.5,218.5 C 297.737,219.791 297.404,220.791 296.5,221.5C 296.062,221.565 295.728,221.399 295.5,221C 296.066,220.005 296.733,219.172 297.5,218.5 Z"/></g>
<g><path style="opacity:0.329" fill="#7e560e" d="M 209.5,211.5 C 211.044,211.703 212.378,212.37 213.5,213.5C 214.54,218.584 216.874,222.917 220.5,226.5C 218.629,226.141 217.129,225.141 216,223.5C 214.482,219.08 212.315,215.08 209.5,211.5 Z"/></g>
<g><path style="opacity:0.58" fill="#6a4509" d="M 257.5,218.5 C 255.131,223.577 251.464,226.577 246.5,227.5C 247.852,226.476 249.185,225.476 250.5,224.5C 251.167,224.5 251.5,224.167 251.5,223.5C 252.833,223.167 252.833,222.833 251.5,222.5C 251.842,221.662 252.508,221.328 253.5,221.5C 254.167,221.5 254.5,221.167 254.5,220.5C 255.167,220.5 255.5,220.167 255.5,219.5C 256.167,219.167 256.833,218.833 257.5,218.5 Z"/></g>
<g><path style="opacity:1" fill="#956611" d="M 292.5,219.5 C 291.172,224.165 288.839,228.165 285.5,231.5C 286.963,228.342 288.129,225.009 289,221.5C 289.333,221.833 289.667,222.167 290,222.5C 290.377,221.058 291.21,220.058 292.5,219.5 Z"/></g>
<g><path style="opacity:0.373" fill="#6d6d6d" d="M 363.5,222.5 C 366.518,222.704 369.518,223.037 372.5,223.5C 369.409,224.621 366.409,224.287 363.5,222.5 Z"/></g>
<g><path style="opacity:0.008" fill="#3a3a3a" d="M 185.5,228.5 C 185.5,229.833 184.833,230.5 183.5,230.5C 183.833,229.5 184.5,228.833 185.5,228.5 Z"/></g>
<g><path style="opacity:0.047" fill="#492f03" d="M 220.5,226.5 C 224.534,226.517 228.201,227.517 231.5,229.5C 237.852,232.481 237.185,233.147 229.5,231.5C 225.03,230.514 220.363,230.181 215.5,230.5C 218.641,229.679 221.975,229.179 225.5,229C 223.825,228.015 222.158,227.181 220.5,226.5 Z"/></g>
<g><path style="opacity:0.702" fill="#a0721d" d="M 215.5,230.5 C 220.363,230.181 225.03,230.514 229.5,231.5C 225.167,231.5 220.833,231.5 216.5,231.5C 216.243,235.171 215.243,238.505 213.5,241.5C 213.659,237.709 214.325,234.042 215.5,230.5 Z"/></g>
<g><path style="opacity:0.02" fill="#493803" d="M 279.5,235.5 C 278.486,236.674 277.153,237.34 275.5,237.5C 276.287,235.896 277.62,235.229 279.5,235.5 Z"/></g>
<g><path style="opacity:0.231" fill="#8f5f10" d="M 271.5,237.5 C 271.5,237.833 271.5,238.167 271.5,238.5C 269.585,238.216 267.919,238.549 266.5,239.5C 265.443,240.206 265.776,240.539 267.5,240.5C 268.167,240.5 268.5,240.833 268.5,241.5C 265.312,241.382 262.312,240.549 259.5,239C 263.418,237.844 267.418,237.344 271.5,237.5 Z"/></g>
<g><path style="opacity:0.286" fill="#777777" d="M 331.5,225.5 C 330.658,231.398 329.324,237.065 327.5,242.5C 327.854,236.354 329.187,230.688 331.5,225.5 Z"/></g>
<g><path style="opacity:0.18" fill="#543a0e" d="M 271.5,237.5 C 272.833,237.5 274.167,237.5 275.5,237.5C 275.721,238.735 276.388,239.735 277.5,240.5C 276.133,244.276 274.8,247.943 273.5,251.5C 273.462,248.193 274.128,245.026 275.5,242C 275.167,241.5 274.833,241 274.5,240.5C 272.591,241.348 270.591,241.682 268.5,241.5C 268.5,240.833 268.167,240.5 267.5,240.5C 267.5,239.833 267.167,239.5 266.5,239.5C 267.919,238.549 269.585,238.216 271.5,238.5C 271.5,238.167 271.5,237.833 271.5,237.5 Z"/></g>
<g><path style="opacity:0.553" fill="#6f6f6f" d="M 332.5,236.5 C 332.5,239.167 332.5,241.833 332.5,244.5C 331.733,243.828 331.066,242.995 330.5,242C 331.109,240.052 331.776,238.218 332.5,236.5 Z"/></g>
<g><path style="opacity:0.212" fill="#6b6b6b" d="M 356.5,237.5 C 356.277,241.162 355.277,244.495 353.5,247.5C 353.59,243.786 354.59,240.452 356.5,237.5 Z"/></g>
<g><path style="opacity:0.925" fill="#898989" d="M 342.5,247.5 C 346.167,247.5 349.833,247.5 353.5,247.5C 352.504,248.665 351.171,249.332 349.5,249.5C 346.971,249.071 344.638,248.404 342.5,247.5 Z"/></g>
<g><path style="opacity:0.996" fill="#93651c" d="M 213.5,241.5 C 214.036,244.698 213.369,247.365 211.5,249.5C 211.565,246.572 212.232,243.905 213.5,241.5 Z"/></g>
<g><path style="opacity:0.596" fill="#7a7a7a" d="M 326.5,249.5 C 326.279,252.067 325.612,254.401 324.5,256.5C 324.171,253.772 324.837,251.438 326.5,249.5 Z"/></g>
<g><path style="opacity:0.431" fill="#7b7b7b" d="M 294.5,255.5 C 297.152,255.41 299.485,256.076 301.5,257.5C 298.848,257.59 296.515,256.924 294.5,255.5 Z"/></g>
<g><path style="opacity:0.824" fill="#888888" d="M 311.5,259.5 C 315.167,259.5 318.833,259.5 322.5,259.5C 321.504,260.665 320.171,261.332 318.5,261.5C 315.971,261.071 313.638,260.404 311.5,259.5 Z"/></g>
<g><path style="opacity:0.149" fill="#6a470f" d="M 273.5,252.5 C 272.785,259.411 271.451,266.077 269.5,272.5C 270.266,266.168 271.099,259.835 272,253.5C 272.383,252.944 272.883,252.611 273.5,252.5 Z"/></g>
<g><path style="opacity:0.294" fill="#593b0a" d="M 209.5,260.5 C 209.5,262.167 209.5,263.833 209.5,265.5C 208.833,266.5 208.167,267.5 207.5,268.5C 207.565,265.572 208.232,262.905 209.5,260.5 Z"/></g>
<g><path style="opacity:0.894" fill="#a57616" d="M 209.5,265.5 C 208.57,269.796 207.737,274.13 207,278.5C 206.617,279.056 206.117,279.389 205.5,279.5C 205.691,275.738 206.358,272.071 207.5,268.5C 208.167,267.5 208.833,266.5 209.5,265.5 Z"/></g>
<g><path style="opacity:0.173" fill="#4e3303" d="M 222.5,275.5 C 223.568,274.566 224.901,274.232 226.5,274.5C 228.027,274.427 229.027,275.094 229.5,276.5C 227.236,275.781 224.903,275.448 222.5,275.5 Z"/></g>
<g><path style="opacity:0.153" fill="#634207" d="M 269.5,273.5 C 269.324,276.727 268.657,279.727 267.5,282.5C 267.215,279.171 267.882,276.171 269.5,273.5 Z"/></g>
<g><path style="opacity:0.145" fill="#78530d" d="M 226.5,274.5 C 224.901,274.232 223.568,274.566 222.5,275.5C 220.232,279.226 218.565,283.226 217.5,287.5C 217.631,283.346 218.464,279.346 220,275.5C 222.016,273.392 224.183,273.058 226.5,274.5 Z"/></g>
<g><path style="opacity:0.961" fill="#8a6113" d="M 229.5,276.5 C 230.117,276.611 230.617,276.944 231,277.5C 231.613,282.431 231.113,287.264 229.5,292C 229.316,293.376 228.649,294.209 227.5,294.5C 228.183,289.769 229.183,285.102 230.5,280.5C 229.754,279.264 229.421,277.93 229.5,276.5 Z"/></g>
<g><path style="opacity:0.157" fill="#5a370a" d="M 205.5,279.5 C 205.706,282.495 205.04,285.162 203.5,287.5C 203.565,284.572 204.232,281.905 205.5,279.5 Z"/></g>
<g><path style="opacity:0.278" fill="#664108" d="M 217.5,287.5 C 217.246,292.444 216.246,297.111 214.5,301.5C 214.754,296.556 215.754,291.889 217.5,287.5 Z"/></g>
<g><path style="opacity:0.302" fill="#6e4b0c" d="M 266.5,287.5 C 266.246,293.095 265.246,298.428 263.5,303.5C 263.496,297.858 264.496,292.525 266.5,287.5 Z"/></g>
<g><path style="opacity:1" fill="#956719" d="M 203.5,289.5 C 204.036,292.698 203.369,295.365 201.5,297.5C 201.565,294.572 202.232,291.905 203.5,289.5 Z"/></g>
<g><path style="opacity:0.663" fill="#614008" d="M 227.5,296.5 C 227.296,299.518 226.963,302.518 226.5,305.5C 225.833,306.5 225.167,307.5 224.5,308.5C 224.898,304.239 225.898,300.239 227.5,296.5 Z"/></g>
<g><path style="opacity:0.384" fill="#76520d" d="M 263.5,303.5 C 262.688,310.723 261.355,317.723 259.5,324.5C 259.666,317.152 261,310.152 263.5,303.5 Z"/></g>
<g><path style="opacity:0.282" fill="#754f10" d="M 213.5,305.5 C 213.373,310.151 212.373,314.485 210.5,318.5C 210.627,313.849 211.627,309.515 213.5,305.5 Z"/></g>
<g><path style="opacity:1" fill="#b57d1c" d="M 226.5,305.5 C 226.618,310.98 225.785,316.314 224,321.5C 223.272,324.187 222.105,326.52 220.5,328.5C 221.454,321.728 222.788,315.061 224.5,308.5C 225.167,307.5 225.833,306.5 226.5,305.5 Z"/></g>
<g><path style="opacity:0.553" fill="#7e5518" d="M 199.5,308.5 C 199.335,312.182 199.501,315.848 200,319.5C 200.5,320 201,320.5 201.5,321C 204.772,321.788 207.772,321.288 210.5,319.5C 207.858,323.103 204.525,323.936 200.5,322C 198.406,320.745 197.406,318.912 197.5,316.5C 197.804,313.614 198.471,310.948 199.5,308.5 Z"/></g>
<g><path style="opacity:1" fill="#f6a30c" d="M 203.5,351.5 C 201.893,355.962 200.56,360.629 199.5,365.5C 199.5,366.167 199.167,366.5 198.5,366.5C 196.167,366.5 193.833,366.5 191.5,366.5C 189.746,362.742 189.079,358.742 189.5,354.5C 189.5,353.833 189.5,353.167 189.5,352.5C 190.117,352.389 190.617,352.056 191,351.5C 191.497,348.854 191.664,346.187 191.5,343.5C 191.216,341.585 191.549,339.919 192.5,338.5C 194.59,332.376 198.424,331.043 204,334.5C 204.242,340.167 204.075,345.833 203.5,351.5 Z"/></g>
<g><path style="opacity:0.569" fill="#694708" d="M 236.5,325.5 C 240.073,323.8 243.239,324.467 246,327.5C 246.573,332.189 245.74,336.523 243.5,340.5C 244.338,336.501 244.838,332.501 245,328.5C 242.804,325.875 239.97,324.875 236.5,325.5 Z"/></g>
<g><path style="opacity:0.776" fill="#805913" d="M 203.5,351.5 C 204.075,345.833 204.242,340.167 204,334.5C 198.424,331.043 194.59,332.376 192.5,338.5C 193.258,331.891 196.925,329.724 203.5,332C 205.297,333.594 206.297,335.594 206.5,338C 205.668,342.674 204.668,347.174 203.5,351.5 Z"/></g>
<g><path style="opacity:0.298" fill="#553c05" d="M 219.5,334.5 C 219.59,337.152 218.924,339.485 217.5,341.5C 217.41,338.848 218.076,336.515 219.5,334.5 Z"/></g>
<g><path style="opacity:0.467" fill="#7a540f" d="M 257.5,335.5 C 257.324,338.727 256.657,341.727 255.5,344.5C 255.068,341.123 255.735,338.123 257.5,335.5 Z"/></g>
<g><path style="opacity:0.392" fill="#755011" d="M 231.5,341.5 C 230.99,346.391 229.99,351.058 228.5,355.5C 228.443,350.469 229.443,345.802 231.5,341.5 Z"/></g>
<g><path style="opacity:0.949" fill="#956116" d="M 217.5,342.5 C 217.664,345.187 217.497,347.854 217,350.5C 216.617,351.056 216.117,351.389 215.5,351.5C 215.676,348.273 216.343,345.273 217.5,342.5 Z"/></g>
<g><path style="opacity:0.922" fill="#8f6117" d="M 243.5,342.5 C 243.664,345.187 243.497,347.854 243,350.5C 242.617,351.056 242.117,351.389 241.5,351.5C 241.676,348.273 242.343,345.273 243.5,342.5 Z"/></g>
<g><path style="opacity:0.847" fill="#7d5317" d="M 191.5,343.5 C 191.664,346.187 191.497,348.854 191,351.5C 190.617,352.056 190.117,352.389 189.5,352.5C 189.676,349.273 190.343,346.273 191.5,343.5 Z"/></g>
<g><path style="opacity:0.557" fill="#735114" d="M 189.5,354.5 C 189.079,358.742 189.746,362.742 191.5,366.5C 186.862,363.23 186.195,359.23 189.5,354.5 Z"/></g>
<g><path style="opacity:0.212" fill="#513c0c" d="M 253.5,356.5 C 253.247,360.04 252.581,363.373 251.5,366.5C 251.159,362.84 251.825,359.507 253.5,356.5 Z"/></g>
<g><path style="opacity:0.671" fill="#825914" d="M 241.5,352.5 C 241.644,356.375 241.31,360.208 240.5,364C 240.522,366.183 241.522,367.683 243.5,368.5C 243.5,368.833 243.5,369.167 243.5,369.5C 240.45,368.758 238.783,366.758 238.5,363.5C 239.389,359.683 240.389,356.016 241.5,352.5 Z"/></g>
<g><path style="opacity:0.259" fill="#74520f" d="M 203.5,351.5 C 203.326,354.874 202.826,358.207 202,361.5C 201.8,363.32 200.966,364.653 199.5,365.5C 200.56,360.629 201.893,355.962 203.5,351.5 Z"/></g>
<g><path style="opacity:1" fill="#ae791c" d="M 255.5,345.5 C 255.341,349.291 254.675,352.958 253.5,356.5C 251.825,359.507 251.159,362.84 251.5,366.5C 249.519,369.841 246.852,370.841 243.5,369.5C 243.5,369.167 243.5,368.833 243.5,368.5C 245.167,368.5 246.833,368.5 248.5,368.5C 250.083,361.472 251.583,354.472 253,347.5C 253.417,346.244 254.25,345.577 255.5,345.5 Z"/></g>
<g><path style="opacity:0.569" fill="#67450a" d="M 191.5,366.5 C 193.833,366.5 196.167,366.5 198.5,366.5C 196.167,369.167 193.833,369.167 191.5,366.5 Z"/></g>
<g><path style="opacity:0.992" fill="#895c15" d="M 213.5,361.5 C 213.714,367.964 212.381,373.964 209.5,379.5C 210.214,373.249 211.548,367.249 213.5,361.5 Z"/></g>
<g><path style="opacity:0.941" fill="#8f6015" d="M 227.5,361.5 C 226.324,369.063 224.657,376.396 222.5,383.5C 222.556,375.695 224.223,368.362 227.5,361.5 Z"/></g>
<g><path style="opacity:0.667" fill="#714d0d" d="M 209.5,380.5 C 209.364,383.35 209.031,386.183 208.5,389C 208.391,391.712 209.391,393.878 211.5,395.5C 209.983,395.489 208.816,394.823 208,393.5C 207.16,388.887 207.66,384.554 209.5,380.5 Z"/></g>
<g><path style="opacity:0.216" fill="#462f0a" d="M 220.5,393.5 C 220.047,394.458 219.381,395.292 218.5,396C 215.961,396.796 213.628,396.629 211.5,395.5C 214.785,395.79 217.785,395.123 220.5,393.5 Z"/></g>
</svg>